<?xml version="1.0" standalone="no"?>
<!DOCTYPE svg PUBLIC "-//W3C//DTD SVG 1.1//EN" "http://www.w3.org/Graphics/SVG/1.1/DTD/svg11.dtd" >
<svg xmlns="http://www.w3.org/2000/svg">
<metadata>Generated by IcoMoon</metadata>
<defs>
<font id="icomoon" horiz-adv-x="1024">
<font-face units-per-em="1024" ascent="960" descent="-64" />
<missing-glyph horiz-adv-x="1024" />
<glyph unicode="&#x20;" horiz-adv-x="512" d="" />
<glyph unicode="&#xe900;" glyph-name="1" d="M512 960c-281.6 0-512-230.4-512-512s230.4-512 512-512c281.6 0 512 230.4 512 512s-230.4 512-512 512zM512 44.8c-224 0-403.2 179.2-403.2 403.2s179.2 403.2 403.2 403.2c224 0 403.2-179.2 403.2-403.2s-179.2-403.2-403.2-403.2zM492.801 704c38.4 0 64-25.6 64-64v-185.6l121.599-76.8c32-19.2 38.4-57.6 19.2-89.6s-57.6-38.4-89.599-19.2l-121.6 76.8c-6.4 0-19.2 6.4-25.6 19.2-12.8 12.8-25.6 25.6-32 51.2 0 6.4 0 12.8 0 25.6v198.4c0 32 25.6 64 64 64z" />
<glyph unicode="&#xe901;" glyph-name="2" d="M970.477 261.131l-103.041 84.415c-67.218 54.967-171.24 49.815-232.572-11.533l-4.166-4.171c-10.305-10.305-26.99-10.305-37.047 0l-198.961 199.009c-10.058 10.061-10.304 26.256-0.49 36.562 0.245 0.246 0.245 0.491 0.49 0.491l-0.49-0.491c0.245 0.246 0.245 0.246 0.49 0.491 60.842 61.592 66.729 166.127 13.493 233.608l-83.656 105.762c-53.972 67.972-147.197 73.371-208.529 12.024l-15.455-15.46c-108.435-108.706-134.195-304.77-52.5-435.071 0 0 48.084-111.407 210.001-273.361s273.295-210.049 273.295-210.049c131.497-79.506 326.284-55.954 434.968 52.758l14.719 14.719c61.084 61.106 56.428 155.33-10.547 210.297zM906.935 124.696l-14.719-14.724c-74.58-74.596-216.382-91.772-306.661-37.053l-6.133 3.681-6.624 2.948c-8.095 3.433-28.456 14.476-59.124 35.085-54.463 36.568-115.795 86.868-181.788 152.878s-116.285 127.111-152.84 181.588c-20.608 30.673-31.648 51.040-35.082 59.138l-3.189 7.361-4.17 6.871c-54.954 87.603-37.045 230.173 38.025 305.507l15.456 15.459c16.928 16.932 37.29 15.95 52.255-2.945l83.657-105.761c20.607-26.011 17.909-71.408-5.888-95.21-50.538-51.286-50.292-133.735 0.49-184.531l198.961-199.010c51.027-51.038 133.949-51.038 185.225 0l4.166 4.171c23.309 23.315 66.732 25.277 92.246 4.419l103.036-84.415c19.138-15.705 20.119-38.034 2.7-55.458z" />
<glyph unicode="&#xe902;" glyph-name="3" horiz-adv-x="1317" d="M1150.208 960h-983.847c-92.124 0-166.361-88.697-166.361-198.768v-626.466c0-110.065 74.236-198.766 166.361-198.766h983.847c92.131 0 166.363 88.7 166.363 198.766v626.466c0 110.070-74.233 198.768-166.363 198.768zM1124.272 831.762l-465.986-301.595-465.987 301.595h931.973zM1150.208 64.234h-983.847c-32.199 0-59.031 32.066-59.031 70.532v613.642l517.863-350.753c9.839-8.549 21.466-13.893 33.093-13.893s23.254 4.275 33.093 13.893l517.862 350.753v-613.642c0-39.541-26.829-70.532-59.034-70.532z" />
<glyph unicode="&#xe903;" glyph-name="4" horiz-adv-x="1707" d="M1092.273 863.457l96.543 96.543 482.714-482.729-482.72-482.718-96.543 96.543 322.772 322.772h-1415.038v136.533h1405.331l-313.057 313.057z" />
<glyph unicode="&#xe904;" glyph-name="5" horiz-adv-x="1707" d="M579.262 863.457l-96.543 96.543-482.709-482.729 482.718-482.718 96.544 96.543-322.77 322.772h1415.034v136.533h-1405.331l313.057 313.057z" />
<glyph unicode="&#xe905;" glyph-name="6" horiz-adv-x="934" d="M855.34 151.956c-5.245 0-10.49-2.2-14.323-5.8-3.832-3.799-5.85-8.797-5.85-14.196s2.22-10.399 5.85-14.198c3.834-3.799 8.877-5.798 14.323-5.798 5.245 0 10.49 2.199 14.323 5.798 3.832 3.799 5.85 8.799 5.85 14.198s-2.218 10.397-5.85 14.196c-3.834 3.599-9.078 5.8-14.323 5.8zM855.34 71.972c-37.723 0-68.588-30.595-68.588-67.987s30.865-67.986 68.588-67.986c37.925 0 68.588 30.593 68.588 67.986s-30.865 67.987-68.588 67.987zM855.34-24.009c-15.533 0-28.242 12.596-28.242 27.994s12.709 27.995 28.242 27.995c15.533 0 28.242-12.598 28.242-27.995s-12.709-27.994-28.242-27.994zM835.167 363.917v-151.971c0-10.998 9.078-19.996 20.173-19.996s20.173 8.998 20.173 19.996v270.947c0 38.392-31.47 69.587-70.202 69.587h-198.702c3.429 8.198 5.043 17.197 4.639 26.395-1.21 34.593-30.057 61.587-65.562 61.587h-48.012c-6.657 0-13.516 0.401-20.173 1-50.634 4.8-92.593 42.592-104.696 93.782-2.22 9.599-5.851 18.597-10.692 26.796 44.38 10.597 77.262 50.39 77.262 97.581 0 55.389-45.389 100.38-101.268 100.38s-101.267-44.991-101.267-100.38c0-19.396 5.649-37.592 15.331-52.989-26.426-7.199-49.423-25.395-61.728-50.591-32.882-66.387-50.231-140.572-50.231-214.557v-73.586c0-35.994 7.666-71.387 21.989-103.98l-23.401-126.575-95.821-122.176c-0.403-0.401-0.807-1-1.009-1.6 0 0 0 0-0.202-0.2l-37.32-59.988c-4.236-6.598-5.447-14.597-3.631-22.196 1.816-7.598 6.455-14.196 13.314-18.196l121.037-73.985c3.228-1.999 6.86-2.999 10.692-2.999 1.614 0 3.026 0.2 4.64 0.6 5.244 1.199 9.683 4.398 12.507 8.997 14.121 22.796 18.559 49.591 12.306 75.585-1.816 7.599-4.439 14.798-7.868 21.596l43.574 48.591-6.858-52.59v-0.2c0-0.401 0-0.8 0-1.201 0-0.399 0-0.599 0-1v-80.184c0-10.998 9.078-19.996 20.173-19.996h151.699c11.095 0 20.173 8.998 20.173 19.996 0 32.594-15.735 61.388-40.143 79.785l32.477 195.162c6.456 38.792 3.43 78.985-8.472 116.378l-39.538 123.776v80.584c48.010-25.595 101.873-39.192 157.348-39.192h34.092c-4.236-8.998-6.656-18.996-6.656-29.595v-526.296c0-10.998 9.078-19.996 20.173-19.996s20.173 8.998 20.173 19.996v407.121h269.509zM835.167 482.893v-78.984h-269.711v78.984c0 16.397 13.516 29.595 29.856 29.595h209.797c16.744 0 30.058-13.198 30.058-29.595zM338.309 919.808c33.487 0 60.922-26.995 60.922-60.388 0-33.194-27.233-60.389-60.922-60.389s-60.922 26.995-60.922 60.389c0 33.394 27.233 60.388 60.922 60.388zM136.177-14.61l-91.786 56.189 21.181 33.993 43.372-26.595c13.718-8.398 23.401-21.596 27.032-37.193 2.017-8.799 2.218-17.796 0.201-26.395zM142.834 75.373l-54.063 32.993 84.928 108.379c2.017 2.6 3.429 5.599 3.832 8.599l15.735 85.582c8.877-11.597 18.761-22.595 29.654-32.792l10.692-9.998-13.718-106.78-77.060-85.983zM244.303-24.008v39.992h50.835c26.225 0 48.819-16.797 57.089-39.992h-107.924zM348.598 237.341l-30.058-181.364h-71.412l12.105 94.181 15.936 123.176c0.806 6.399-1.412 12.797-6.254 17.197l-18.156 16.797c-39.74 36.792-64.351 87.182-69.193 140.572h123.862l36.11-112.778c9.884-31.393 12.507-65.187 7.060-97.78zM331.854 603.67c0 0-0.202 0-0.202 0.2-14.323 9.998-28.040 21.196-40.548 33.594-7.867 7.799-20.576 7.799-28.443 0-7.868-7.799-7.868-20.396 0-28.195 11.7-11.598 24.207-22.396 37.521-31.994 0-0.2 0-0.401 0-0.6v-88.782h-119.625v53.59c0 67.786 15.937 135.973 46.196 196.961 10.287 20.996 33.083 33.594 56.484 31.393 24.611-2.199 44.783-19.795 50.432-43.592 15.937-67.786 72.219-117.777 140-124.375 7.867-0.8 16.138-1.199 24.005-1.199h48.012c13.516 0 24.813-10.399 25.216-23.196 0.202-6.598-2.218-12.797-6.858-17.596s-10.692-7.398-17.349-7.398h-49.020c-59.711 0-117.002 17.796-165.82 51.19z" />
<glyph unicode="&#xe906;" glyph-name="7" horiz-adv-x="794" d="M684.001 467.058c-55.091 0-100.093-45.002-100.093-100.093 0-48.366 34.432-88.883 80.074-98.172v-120.273c0-45.804-17.937-89.044-50.607-121.714-32.671-32.671-75.75-50.609-121.554-50.609-45.802 0-88.883 17.938-121.554 50.609-32.671 32.669-50.607 75.91-50.607 121.714v121.714c23.222 8.168 40.037 30.428 40.037 56.532v22.1h9.93c11.050 0 20.018 8.969 20.018 20.019v60.858c47.245 13.132 90.326 38.116 125.558 72.708 54.771 53.97 85.041 125.398 85.041 201.148v44.041c0 40.678-16.175 78.794-45.484 107.622-8.808 8.648-18.577 16.175-28.987 22.421 0 0.801 0 1.441 0 2.242 0 44.201-35.873 80.075-80.076 80.075-44.041 0-80.074-35.874-80.074-80.075s35.873-80.075 80.074-80.075c28.507 0 53.971 14.733 68.064 37.955 4.485-3.363 8.809-6.887 12.813-10.89 21.619-21.3 33.471-49.327 33.471-79.114v-44.042c0-65.020-25.944-126.198-73.028-172.641-27.707-27.226-61.018-47.405-97.532-59.416v37.636c0 11.050-8.968 20.019-20.018 20.019h-140.132c-11.050 0-20.019-8.969-20.019-20.019v-37.315c-36.193 12.010-69.184 32.189-96.73 59.095-46.604 46.124-72.548 107.461-72.548 172.481v44.041c0 29.788 11.851 57.975 33.471 79.114 4.004 4.004 8.328 7.688 12.812 10.891 14.253-23.062 39.557-37.955 68.064-37.955 44.201 0 80.076 35.873 80.076 80.074s-35.875 80.235-79.916 80.235c-44.201 0-80.075-35.874-80.075-80.075 0-0.801 0-1.441 0-2.242-10.41-6.246-20.179-13.773-28.987-22.421-29.308-28.827-45.483-67.103-45.483-107.622v-44.041c0-75.75 30.108-147.178 85.040-201.148 34.913-34.432 77.833-59.255 124.757-72.548v-61.018c0-11.050 8.968-20.019 20.018-20.019h9.93v-22.1c0-26.104 16.815-48.365 40.037-56.532v-121.714c0-56.534 22.1-109.864 62.299-150.061 40.197-40.198 93.367-62.459 149.9-62.459 56.374 0 109.704 22.1 149.741 62.459 40.197 40.197 62.299 93.527 62.299 150.061v120.273c45.642 9.289 80.074 49.806 80.074 98.172-0.16 55.091-45.002 100.093-100.093 100.093zM484.934 871.117c0-0.16 0-0.16 0-0.16 0-0.16 0-0.16 0-0.32-4.164-17.937-20.499-30.909-38.916-30.909-22.102 0-40.038 17.937-40.038 40.198 0 22.101 17.937 40.198 40.038 40.198s40.037-17.937 40.037-40.198c-0.16-3.043-0.48-5.926-1.121-8.808zM154.545 919.962c22.1 0 40.038-17.937 40.038-40.198 0-22.101-17.938-40.198-40.038-40.198-18.577 0-34.913 12.972-39.076 31.229v0.16c-0.641 2.723-0.961 5.765-0.961 8.808 0 22.261 17.937 40.198 40.037 40.198zM249.674 388.905v100.253h100.093v-100.253h-100.093zM299.802 306.748c-11.052 0-20.019 8.968-20.019 20.018v22.1h40.037v-22.1c0-11.050-8.968-20.018-20.018-20.018zM684.001 306.748c-33.151 0-60.056 26.904-60.056 60.216 0 33.151 26.906 60.216 60.056 60.216s60.056-27.066 60.056-60.216c-0.16-33.312-27.066-60.216-60.056-60.216zM684.001 346.784c-11.050 0-20.019 8.969-20.019 20.019s8.969 20.019 20.019 20.019c11.050 0 20.019-8.969 20.019-20.019s-8.969-20.019-20.019-20.019z" />
<glyph unicode="&#xe907;" glyph-name="8" d="M989.943-10.514h-58.545v604.877h19.688c32.122 0 58.545 26.163 58.545 58.545 0 32.122-26.163 58.545-58.545 58.545h-25.128l-60.358 180.815c-10.62 31.604-40.411 53.105-73.828 53.105h-559.543c-33.677 0-63.208-21.501-73.829-53.364l-60.358-180.816h-25.128c-32.122 0-58.286-26.163-58.286-58.285s26.164-58.545 58.545-58.545h19.688v-604.877h-58.804c-10.621 0-19.429-8.808-19.429-19.428s8.808-19.429 19.429-19.429h955.886c10.621 0 19.429 8.808 19.429 19.429s-8.808 19.428-19.429 19.428zM892.541 516.389v-136.777h-68.389v136.777h68.389zM195.185 879.833c5.44 16.061 20.206 26.682 37.044 26.682h559.543c16.837 0 31.862-10.621 37.043-26.682l56.214-168.381h-90.926c-8.808 0-17.356 2.331-24.869 6.735l-247.131 146.621c-6.217 3.627-13.729 3.627-19.688 0l-247.649-146.621c-7.512-4.404-16.061-6.735-24.869-6.735h-90.925l56.212 168.381zM53.486 652.908c0 10.88 8.808 19.688 19.688 19.688 189.363 0 22.019 0 156.983 0 15.802 0 31.085 4.145 44.815 12.175l237.028 140.662 237.288-140.662c13.471-8.031 29.014-12.175 44.815-12.175 141.44 0 107.764 0 156.983 0 10.88 0 19.688-8.808 19.688-19.688s-8.808-19.688-19.688-19.688h-176.152c-8.808 0-17.615 2.331-25.128 6.994l-227.703 136.518c-6.217 3.626-13.729 3.626-19.946 0l-227.703-136.518c-7.512-4.663-16.32-6.994-25.128-6.994h-176.152c-10.88 0-19.688 8.808-19.688 19.688zM131.46 379.612v136.777h68.388v-136.777h-68.388zM131.46 340.755h217.34c10.621 0 19.429 8.808 19.429 19.428s-8.808 19.429-19.429 19.429h-110.095v136.777h110.095c10.621 0 19.429 8.808 19.429 19.428s-8.808 19.429-19.429 19.429h-217.34v39.117h117.608c15.802 0 31.603 4.403 45.074 12.434l217.6 130.56 217.6-130.56c13.729-8.289 29.272-12.434 45.074-12.434h117.608v-39.117h-216.823c-10.62 0-19.428-8.808-19.428-19.429s8.808-19.428 19.428-19.428h109.837v-136.777h-109.837c-10.62 0-19.428-8.808-19.428-19.429s8.808-19.428 19.428-19.428h217.341v-351.269h-234.18v195.063c0 10.621-8.806 19.428-19.428 19.428h-253.608c-10.621 0-19.429-8.806-19.429-19.428v-195.063h-234.437v351.269zM531.429 165.12h87.817v-175.634h-87.817v175.634zM492.572-10.514h-87.817v175.634h87.817v-175.634zM498.792 326.249c7.512-6.735 18.911-6.735 26.164 0 89.889 82.118 82.895 75.642 83.412 76.16 30.309 30.309 30.309 79.786 0 110.354-26.163 26.164-66.316 29.791-96.625 10.88-30.049 18.911-70.46 15.284-96.625-10.88-30.308-30.308-30.308-79.786 0-110.354 0.777-0.259-5.18 5.44 83.672-76.16zM442.838 485.304c15.284 15.283 40.152 15.283 55.437 0 7.512-7.512 19.946-7.512 27.459 0 15.283 15.283 40.152 15.283 55.177 0s15.284-39.894 0.259-54.918l-69.165-63.466-69.425 63.466c-14.766 15.284-14.766 39.894 0.259 54.918z" />
<glyph unicode="&#xe908;" glyph-name="9" d="M512-12.8c-254.4 0-460.8 206.4-460.8 460.8s206.4 460.8 460.8 460.8c254.4 0 460.8-206.4 460.8-460.8s-206.4-460.8-460.8-460.8zM512-64c282.667 0 512 229.333 512 512s-229.333 512-512 512c-282.667 0-512-229.333-512-512s229.333-512 512-512zM648.038 448.068l-214.038 137.35v-274.467l214.038 137.116zM691.186 474.185c19.391-12.359 19.391-39.643 0-52.235l-253.065-162.301c-21.573-13.991-50.662 0.933-50.662 26.118v324.602c0 24.952 29.089 39.876 50.662 26.118l253.065-162.301z" />
<glyph unicode="&#xe909;" glyph-name="10" d="M682.667 469.334l-213.334 153.6c-8.533 4.266-17.066 8.533-25.6 4.266-8.533-8.533-17.066-17.066-17.066-25.6v-311.466c0-8.534 4.266-17.067 12.8-21.334 4.266 0 8.533-4.266 12.8-4.266s8.533 0 17.066 4.266l213.334 153.6c8.533 4.267 12.8 12.8 12.8 21.334-4.267 12.8-8.534 17.066-12.8 25.6zM512 960c-281.6 0-512-230.4-512-512s230.4-512 512-512c281.6 0 512 230.4 512 512s-226.133 512-512 512zM512 21.333c-234.667 0-426.667 187.734-426.667 426.667 0 234.667 192 426.667 426.667 426.667s426.667-192 426.667-426.667c0-238.933-187.734-426.667-426.667-426.667z" />
<glyph unicode="&#xe90a;" glyph-name="11" horiz-adv-x="977" d="M745.891 308.396c-59.345 0-115.2-28.798-150.109-76.8l-233.309 155.639c14.836 39.27 14.836 82.325 0 121.599l233.309 155.636c54.109-73.309 153.6-96.582 234.473-54.691s119.561 136.436 90.764 223.127c-28.509 86.4-115.782 139.346-205.675 124.8-89.889-14.836-155.927-92.8-155.634-183.855 0.289-6.691 0.87-13.673 2.034-20.364l-251.052-167.273c-54.691 49.164-133.236 61.673-200.436 31.709-66.909-29.673-110.255-96.291-110.255-169.892 0-73.598 43.345-140.218 110.545-170.179 67.2-29.966 145.745-17.455 200.436 31.707l251.055-167.27c-1.164-6.693-1.745-13.382-2.039-20.364 0-75.348 45.382-143.127 114.911-171.93 69.525-28.798 149.527-12.8 202.761 40.439 53.239 53.234 69.236 133.236 40.439 202.761-28.802 69.53-96.875 115.2-172.218 115.2z" />
<glyph unicode="&#xe90b;" glyph-name="12" d="M512 728c-110.4 0-200-89.6-200-200s89.6-200 200-200c110.4 0 200 89.6 200 200s-89.6 200-200 200zM512 408c-66.133 0-120 53.867-120 120s53.867 120 120 120c66.133 0 120-53.867 120-120s-53.867-120-120-120zM512 960c-287.2 0-512-224.8-512-512 0-288 225.867-512 512-512 286.4 0 512 224.269 512 512 0 287.2-224.8 512-512 512zM512 16c-93.867 0-180 28.531-250.133 77.6 47.2 93.331 144.266 154.4 250.133 154.4s203.2-61.069 250.131-154.4c-70.131-49.069-156.264-77.6-250.131-77.6zM824.531 146.931c-26.131 45.338-61.6 84.8-105.331 115.469-60.8 42.931-132.533 65.6-207.2 65.6s-146.4-22.669-207.2-65.6c-43.467-30.669-79.2-69.869-105.333-115.469-74.4 77.338-119.467 182.936-119.467 301.069 0 242.133 189.867 432 432 432 242.131 0 432-189.867 432-432 0-118.133-45.069-223.731-119.469-301.069z" />
<glyph unicode="&#xe90c;" glyph-name="13" d="M1020.998 139.002c6.202-15.002 2.4-32.403-9.197-43.802-7.603-7.398-17.6-11.2-27.802-11.2-5.402 0-11.002 1.203-16.198 3.398l-214.598 94.605c-27.002-10.202-54.605-18.003-83.002-23.206-28.998-47.795-70.602-88.397-121.002-117.798-56.4-32.998-121.4-50.598-188.2-50.995-1 0-1.999-0.205-3-0.205-46.2 0-91 8-133.4 23.802l-168.4-74.202c-5.2-2.195-10.6-3.398-16.2-3.398-10.2 0-20.2 3.802-27.8 11.2-11.6 11.398-15.4 28.602-9.2 43.802l58.4 144.595c-40.2 54.605-61.4 118.202-61.4 185.403 0 107.201 55.6 207 149.6 269.201 8.6 95.6 53.4 184.4 128 252.6 82.6 75.6 192 117.2 308.4 117.2s225.802-41.6 308.4-117.2c83.597-76.4 129.6-178.4 129.6-287 0-18-1.6-38.399-4.403-57.599-3.2-21.8-23.597-37-45.395-33.6-21.798 3.2-37.005 23.6-33.6 45.4 2.195 15.2 3.597 31.8 3.597 45.8-0.198 178.8-160.8 324.2-358.198 324.2-197.4 0-358-145.4-358-324.2 0-156.6 143.8-324.203 358-324.203 53.2 0 104.4 10.4 152.202 30.803 10.202 4.403 21.798 4.198 31.795-0.198l140.006-61.6-47.206 116.602c-8.198 20.397 1.6 43.796 22.003 51.997s43.802-1.6 52-22l84.198-208.198zM563.2 152c-110.8 5.203-213.4 48.403-291 123.2-62.4 60-103.6 136.4-118.4 216.2-47-45.999-74-106.4-74-170.4 0-55.796 19.999-108.801 57.599-153 9.601-11.398 12.2-27.2 6.6-40.998l-30-74.598 93.6 41.197c10.2 4.397 21.6 4.602 31.8 0.198 36.8-15.597 76.001-23.597 116.801-24 0.6 0 1 0 1.599 0 79 0.205 153.4 31.002 205.4 82.202z" />
<glyph unicode="&#xe90d;" glyph-name="14" horiz-adv-x="745" d="M352.89 936.727c-203.823 0-352.907-202.752-352.907-369.85 0-80.756 8.704-157.417 56.971-221.743l273.129-368.081c0.698-0.884 1.769-1.257 2.513-2.095 2.726-3.128 6.124-5.595 9.941-7.219s7.951-2.365 12.094-2.164c4.143 0.2 8.186 1.341 11.827 3.328s6.784 4.776 9.193 8.15c88.681 118.379 198.161 246.691 282.408 368.081 63.376 102.865 64.54 144.384 64.54 221.743 0 167.098-165.888 369.85-369.709 369.85zM352.797 296.82c-148.573 0-251.811 121.391-251.811 269.917 0 148.62 103.284 270.057 251.811 270.057 148.525 0 269.916-121.437 269.916-269.964 0-148.62-121.391-270.010-269.916-270.010z" />
<glyph unicode="&#xe90e;" glyph-name="15" horiz-adv-x="1317" d="M1150.186 960h-983.853c-92.124 0-166.36-88.697-166.36-198.768v-626.466c0-110.065 74.236-198.766 166.36-198.766h983.853c92.123 0 166.356 88.7 166.356 198.766v626.466c0 110.070-74.233 198.768-166.356 198.768zM1124.25 831.762l-465.991-301.595-465.987 301.595h931.978zM1150.186 64.234h-983.853c-32.199 0-59.031 32.066-59.031 70.532v613.642l517.863-350.753c9.838-8.549 21.466-13.893 33.093-13.893s23.255 4.275 33.093 13.893l517.86 350.753v-613.642c0-39.541-26.829-70.532-59.026-70.532z" />
<glyph unicode="&#xe90f;" glyph-name="16" d="M970.456 261.131l-103.036 84.415c-67.223 54.967-171.24 49.815-232.572-11.533l-4.171-4.171c-10.305-10.305-26.985-10.305-37.047 0l-198.958 199.009c-10.058 10.061-10.304 26.256-0.491 36.562 0.246 0.246 0.246 0.491 0.491 0.491l-0.491-0.491c0.246 0.246 0.246 0.246 0.491 0.491 60.841 61.592 66.729 166.127 13.493 233.608l-83.657 105.762c-53.972 67.972-147.197 73.371-208.529 12.024l-15.455-15.46c-108.435-108.706-134.194-304.77-52.5-435.071 0 0 48.084-111.407 210.001-273.361s273.295-210.049 273.295-210.049c131.496-79.506 326.287-55.954 434.966 52.758l14.719 14.719c61.090 61.106 56.428 155.33-10.547 210.297zM906.914 124.696l-14.719-14.724c-74.58-74.596-216.377-91.772-306.661-37.053l-6.133 3.681-6.624 2.948c-8.095 3.433-28.456 14.476-59.123 35.085-54.463 36.568-115.795 86.868-181.788 152.878s-116.285 127.111-152.84 181.588c-20.607 30.673-31.647 51.040-35.082 59.138l-3.189 7.361-4.17 6.871c-54.953 87.603-37.045 230.173 38.026 305.507l15.455 15.459c16.928 16.932 37.29 15.95 52.255-2.945l83.656-105.761c20.608-26.011 17.909-71.408-5.888-95.21-50.537-51.286-50.292-133.735 0.491-184.531l198.961-199.010c51.030-51.038 133.947-51.038 185.223 0l4.171 4.171c23.304 23.315 66.727 25.277 92.241 4.419l103.041-84.415c19.133-15.705 20.114-38.034 2.695-55.458z" />
<glyph unicode="&#xe910;" glyph-name="17" horiz-adv-x="1422" d="M0 960h1422.222v-113.778h-1422.222v113.778zM0 504.889h1137.778v-113.778h-1137.778v113.778zM1422.222 49.778h-1422.222v-113.778h1422.222v113.778z" />
<glyph unicode="&#xe911;" glyph-name="18" horiz-adv-x="1544" d="M1345.133 960h160.662c21.088 0 38.158-17.070 38.158-38.157v-7.029c0-19.079-14.058-35.145-32.132-38.157-128.532-21.087-241.999-98.406-310.282-209.868 196.813-12.049 348.44-178.737 342.414-374.547-6.024-196.813-167.692-353.46-364.505-353.46-200.829 0-363.502 162.673-363.502 364.507v127.527c0 291.203 236.98 529.185 529.187 529.185zM1137.274 587.461c-28.116 0-46.191 28.116-35.146 54.225 43.179 99.411 115.478 182.755 207.859 239.991-234.971-19.079-416.721-214.888-417.725-451.866v-126.523c0-116.481 70.29-220.913 177.734-265.096s230.954-20.082 313.294 62.258c81.336 82.339 106.441 205.85 61.253 312.291-44.182 107.444-149.618 176.729-265.094 176.729-12.051 0-24.1-1.004-37.153-2.009-1.004 0-3.013 0-5.021 0zM534.785 960h159.659c21.088 0 38.158-17.070 38.158-38.157v-7.029c0-19.079-14.058-35.145-32.132-38.157-128.532-21.087-242-98.406-309.277-209.868 196.813-12.049 347.435-177.734 341.41-374.547s-166.688-353.46-363.502-353.46c-200.829 0-363.501 162.673-364.505 364.507v127.527c1.004 291.203 237.982 528.181 530.19 529.185zM326.926 587.461c-28.116 0-46.191 28.116-35.144 54.225 43.179 99.411 115.476 182.755 207.859 239.991-234.971-19.079-416.722-214.888-417.726-450.862v-127.527c0-116.481 70.29-220.913 177.735-265.096s230.954-20.082 313.294 62.258c82.341 82.339 106.439 205.85 62.258 313.294-45.188 106.441-150.622 176.731-266.1 176.731-12.049 0-24.098-1.004-37.153-2.009-2.007-1.004-3.012-1.004-5.021-1.004z" />
<glyph unicode="&#xe912;" glyph-name="19" d="M1024 582.4l-371.2 25.6-140.8 352-140.8-352-371.2-25.6 288-243.2-96-364.8 320 204.8 320-204.8-96 364.8 288 243.2z" />
<glyph unicode="&#xe913;" glyph-name="20" d="M1024 582.4l-371.2 25.6-140.8 352-140.8-352-371.2-25.6 288-243.2-96-364.8 320 204.8 320-204.8-96 364.8 288 243.2zM512 249.6l-224-140.8 64 256-198.4 172.8 262.4 19.2 96 243.2 96-249.6 262.4-19.2-198.4-172.8 64-256-224 147.2z" />
<glyph unicode="&#xe914;" glyph-name="21" horiz-adv-x="862" d="M428.165 384c90.756 0 164.677 71.822 164.677 160s-73.921 160-164.677 160c-90.756 0-164.678-71.822-164.678-160s73.922-160 164.678-160zM428.165 597.333c30.374 0 54.893-23.822 54.893-53.333s-24.519-53.333-54.893-53.333c-30.374 0-54.893 23.822-54.893 53.333s24.519 53.333 54.893 53.333zM862.316 541.091c0 230.866-193.541 418.909-431.158 418.909s-431.158-188.044-431.158-418.909c0-91.229 29.702-178.115 85.912-251.035l230.271-298.2c27.147-35.064 69.943-55.857 114.975-55.857s88.148 20.793 114.974 55.857l229.953 298.2c56.53 72.92 86.232 159.805 86.232 251.035zM699.753 345.913l-229.951-297.892c-9.262-11.792-23.315-18.621-38.325-18.621-15.33 0-29.063 6.828-38.326 18.621l-229.951 298.2c-44.394 56.164-67.388 123.812-67.388 194.871 0 179.666 150.426 325.818 335.345 325.818s335.344-146.153 335.344-325.818c0-71.059-22.991-138.707-66.749-195.178z" />
<glyph unicode="&#xe915;" glyph-name="22" d="M795.607 354.599c-0.202 0.202-0.401 0.401-0.401 0.401l-57.599 57.599c-16.203 16.2-37.601 25-60.401 25-22.601 0-44-8.801-60.001-24.798-0.199-0.202-0.199-0.202-0.398-0.401l-30.401-30.401-140.399 140.402 30.398 30.398c0.202 0.202 0.202 0.202 0.401 0.401 32.999 33.201 32.999 87.201-0.199 120.4l-57.601 57.6c-16.2 16-37.598 25-60.199 25s-44-8.8-60.199-24.8c-0.202-0.2-0.401-0.4-0.6-0.6l-26.201-26.2c-13.8-13.8-24.4-24.4-24.8-24.8-40.6-40.599-50.2-105.4-26.8-182.2 21.4-70.399 68.6-144.601 132.6-208.601 89.6-89.398 199.2-144.998 286-144.998 42.999 0 79.199 13.599 104.799 39 0.6 0.6 15.202 15.199 32.601 32.598l19.199 19.201c32.8 32.8 33.201 86.2 0.802 119.6-0.199-0.202-0.401 0-0.6 0.199zM753.006 277.001c-0.199-0.202-0.398-0.401-0.6-0.6l-18.801-18.801c-17.197-17.2-31.598-31.601-32.598-32.601-14.4-14.4-35.401-21.601-62.4-21.601-70.6 0-166.201 50-243.601 127.602-57.201 57.201-99 122.599-117.6 183.799-16.4 54-12.2 98.599 11.8 122.4l51.601 51.6c0.199 0.2 0.199 0.2 0.199 0.2 4.801 4.6 11.001 7.2 17.601 7.2 6.597 0 12.999-2.6 17.8-7.2l0.199-0.2 57.4-57.399c9.801-9.801 9.801-26.001 0-35.802l-51.601-51.601c-11.799-11.799-11.799-30.799 0-42.399l182.802-182.799c5.6-5.6 13.201-8.801 21.2-8.801s15.6 3.201 21.2 8.801l51.399 51.399c0.202 0.202 0.401 0.401 0.6 0.6 4.801 4.602 11.001 7.2 17.8 7.2 6.802 0 13.201-2.598 18.002-7.399l57.8-57.8c9.4-10 9.4-26.001-0.202-35.799zM873.999 810c-96.598 96.8-225.198 150-361.999 150s-265.4-53.2-362-150c-96.8-96.6-150-225.2-150-362s53.2-265.4 150-361.999c96.8-96.8 225.2-150.001 362-150.001s265.4 53.201 361.999 150.001c96.8 96.797 150.001 225.198 150.001 361.999s-53.201 265.4-150.001 362zM512-3.999c-249.2 0-452 202.799-452 451.999s202.8 452 452 452c249.201 0 451.999-202.8 451.999-452s-202.799-451.999-451.999-451.999z" />
<glyph unicode="&#xe916;" glyph-name="23" d="M512 960c-40.395 0-73.143-32.747-73.143-73.143v-365.714h-365.714c-40.396 0-73.143-32.747-73.143-73.143s32.747-73.143 73.143-73.143h365.714v-365.715c0-40.397 32.748-73.143 73.143-73.143s73.143 32.746 73.143 73.143v365.715l365.714 0.001c40.397 0 73.143 32.747 73.143 73.143s-32.746 73.143-73.143 73.143l-365.714-0.001v365.714c0 40.396-32.748 73.143-73.143 73.143z" />
<glyph unicode="&#xe917;" glyph-name="24" horiz-adv-x="7168" d="M7168 448c0-282.77-229.23-512-512-512h-6144c-282.77 0-512 229.23-512 512s229.23 512 512 512h6144c282.77 0 512-229.23 512-512z" />
<glyph unicode="&#xe918;" glyph-name="25" horiz-adv-x="1506" d="M270.917 291.177c-31.849-80.227-81.839-159.648-149.165-235.845-21.367-24.184-24.189-58.856-6.854-86.269 13.304-20.968 35.88-33.063 59.666-33.063 6.854 0 13.707 0.807 20.158 2.825 142.715 41.526 474.908 189.482 483.781 662.374 3.626 182.627-129.816 339.452-303.573 357.19-95.949 9.272-191.899-21.77-262.854-85.871-71.358-64.504-112.076-156.019-112.076-251.968 0-159.647 113.285-299.538 270.917-329.373zM176.983 800.758c45.152 40.718 101.997 62.488 162.066 62.488 8.466 0 17.335-0.403 25.802-1.21 124.17-12.498 219.313-126.186 216.894-258.822-6.047-327.355-183.433-474.51-330.179-540.22 46.765 62.488 83.452 126.994 109.254 192.301 10.079 25.401 8.466 54.025-4.435 78.21-13.707 25.401-37.896 43.543-66.52 49.59-112.076 23.383-193.108 123.364-193.108 237.455 0 68.535 29.027 134.249 80.227 180.208zM887.338-30.943c13.306-20.962 35.882-33.057 59.669-33.057 6.849 0 13.704 0.807 20.155 2.825 142.715 41.52 474.913 189.476 483.78 662.373 3.223 182.627-130.217 339.452-303.977 357.191-95.545 9.676-191.494-21.77-262.445-85.871-70.957-64.101-112.080-156.019-112.080-251.968 0-159.647 113.285-299.537 270.92-329.372-31.852-80.227-81.842-159.648-149.167-235.845-21.365-24.588-24.19-59.259-6.855-86.275zM1133.261 255.295c10.077 25.401 8.463 54.025-4.433 78.21-13.71 25.401-37.9 43.542-66.524 49.59-111.67 23.383-192.705 123.364-192.705 237.455 0 68.536 29.027 134.249 80.227 180.208 44.749 40.718 101.593 62.488 162.069 62.488 8.463 0 16.932-0.403 25.799-1.209 124.169-12.498 219.317-126.186 216.895-258.822-6.048-327.355-183.435-474.51-330.18-540.22 46.363 62.488 83.046 126.994 108.851 192.301z" />
<glyph unicode="&#xe919;" glyph-name="26" horiz-adv-x="939" d="M855.34 151.958c-5.246 0-10.491-2.2-14.324-5.799-3.833-3.799-5.85-8.798-5.85-14.196 0-5.4 2.22-10.399 5.85-14.198 3.833-3.799 8.876-5.799 14.324-5.799 5.245 0 10.489 2.2 14.322 5.799 3.833 3.799 5.85 8.798 5.85 14.198 0 5.398-2.22 10.397-5.85 14.196-3.833 3.599-9.078 5.799-14.322 5.799zM855.337 71.97c-37.722 0-68.588-30.594-68.588-67.987 0-37.391 30.865-67.987 68.588-67.987 37.926 0 68.589 30.595 68.589 67.987 0 37.393-30.865 67.987-68.589 67.987zM855.337-24.011c-15.532 0-28.242 12.599-28.242 27.994 0 15.398 12.71 27.994 28.242 27.994 15.534 0 28.244-12.597 28.244-27.994 0-15.396-12.71-27.994-28.244-27.994zM835.166 363.916v-151.97c0-10.998 9.078-19.995 20.173-19.995s20.173 8.998 20.173 19.995v270.947c0 38.393-31.469 69.588-70.2 69.588h-198.704c3.43 8.197 5.043 17.196 4.64 26.394-1.21 34.594-30.058 61.588-65.562 61.588h-48.012c-6.656 0-13.515 0.399-20.173 1-50.633 4.799-92.593 42.592-104.697 93.781-2.219 9.598-5.85 18.596-10.691 26.795 44.38 10.598 77.261 50.39 77.261 97.581 0 55.389-45.389 100.38-101.267 100.38-55.88 0-101.268-44.991-101.268-100.38 0-19.396 5.649-37.593 15.331-52.99-26.426-7.199-49.423-25.395-61.728-50.59-32.882-66.388-50.23-140.573-50.23-214.559v-73.585c0-35.994 7.666-71.386 21.988-103.98l-23.4-126.575-95.821-122.177c-0.403-0.399-0.807-0.998-1.009-1.599 0 0 0 0-0.202-0.2l-37.32-59.988c-4.236-6.6-5.447-14.597-3.631-22.197 1.816-7.598 6.455-14.196 13.314-18.196l121.037-73.986c3.228-1.999 6.859-2.999 10.692-2.999 1.614 0 3.026 0.2 4.64 0.599 5.245 1.2 9.683 4.4 12.507 8.999 14.121 22.796 18.559 49.591 12.305 75.585-1.816 7.598-4.437 14.797-7.867 21.596l43.573 48.591-6.857-52.589v-0.201c0-0.399 0-0.799 0-1.2 0-0.399 0-0.599 0-0.998v-80.184c0-10.998 9.078-19.997 20.173-19.997h151.699c11.095 0 20.173 8.999 20.173 19.997 0 32.592-15.734 61.387-40.143 79.783l32.478 195.162c6.455 38.793 3.429 78.985-8.474 116.378l-39.538 123.776v80.584c48.012-25.595 101.873-39.192 157.348-39.192h34.092c-4.236-8.999-6.656-18.997-6.656-29.595v-526.297c0-10.998 9.078-19.995 20.173-19.995s20.173 8.998 20.173 19.995v407.12h269.508zM835.166 482.893v-78.985h-269.71v78.985c0 16.398 13.515 29.595 29.855 29.595h209.799c16.742 0 30.056-13.198 30.056-29.595zM338.309 919.808c33.487 0 60.921-26.995 60.921-60.388 0-33.193-27.233-60.388-60.921-60.388-33.69 0-60.923 26.995-60.923 60.388s27.233 60.388 60.923 60.388zM136.177-14.609l-91.787 56.189 21.181 33.993 43.372-26.595c13.718-8.399 23.4-21.596 27.032-37.193 2.017-8.798 2.219-17.795 0.202-26.394zM142.834 75.373l-54.063 32.993 84.927 108.378c2.017 2.599 3.43 5.6 3.833 8.598l15.735 85.584c8.876-11.599 18.76-22.596 29.653-32.794l10.692-9.999-13.718-106.778-77.060-85.984zM244.304-24.008v39.992h50.835c26.225 0 48.819-16.797 57.090-39.992h-107.924zM348.597 237.341l-30.058-181.364h-71.412l12.104 94.181 15.937 123.177c0.807 6.398-1.411 12.797-6.253 17.196l-18.156 16.797c-39.741 36.792-64.352 87.182-69.193 140.571h123.861l36.11-112.777c9.885-31.394 12.508-65.188 7.060-97.782zM331.855 603.67c0 0-0.203 0-0.203 0.2-14.322 9.998-28.041 21.195-40.547 33.592-7.868 7.799-20.576 7.799-28.443 0-7.868-7.798-7.868-20.395 0-28.194 11.699-11.597 24.207-22.395 37.521-31.993 0-0.2 0-0.399 0-0.601v-88.783h-119.625v53.589c0 67.787 15.937 135.974 46.196 196.963 10.288 20.995 33.084 33.592 56.484 31.392 24.612-2.198 44.785-19.796 50.432-43.59 15.937-67.787 72.219-117.777 140-124.377 7.868-0.799 16.138-1.2 24.006-1.2h48.012c13.515 0 24.813-10.397 25.216-23.195 0.201-6.598-2.219-12.797-6.859-17.596s-10.691-7.398-17.348-7.398h-49.021c-59.711 0-117.002 17.795-165.82 51.19z" />
<glyph unicode="&#xe91a;" glyph-name="27" horiz-adv-x="785" d="M684.001 467.058c-55.091 0-100.094-45.003-100.094-100.094 0-48.365 34.432-88.883 80.075-98.173v-120.272c0-45.804-17.937-89.044-50.608-121.714-32.669-32.671-75.75-50.608-121.554-50.608-45.802 0-88.883 17.937-121.554 50.608s-50.606 75.911-50.606 121.714v121.714c23.221 8.168 40.037 30.428 40.037 56.533v22.1h9.929c11.051 0 20.019 8.969 20.019 20.019v60.856c47.244 13.133 90.324 38.117 125.558 72.709 54.77 53.97 85.040 125.397 85.040 201.148v44.042c0 40.678-16.176 78.794-45.483 107.621-8.808 8.648-18.577 16.175-28.988 22.421 0 0.801 0 1.441 0 2.242 0 44.201-35.874 80.075-80.075 80.075-44.041 0-80.075-35.874-80.075-80.075s35.874-80.075 80.075-80.075c28.506 0 53.97 14.734 68.064 37.956 4.485-3.363 8.808-6.886 12.812-10.89 21.62-21.3 33.471-49.325 33.471-79.114v-44.042c0-65.021-25.943-126.198-73.028-172.641-27.706-27.226-61.017-47.404-97.531-59.416v37.635c0 11.051-8.969 20.019-20.019 20.019h-140.131c-11.051 0-20.019-8.969-20.019-20.019v-37.315c-36.193 12.012-69.185 32.189-96.73 59.095-46.604 46.123-72.548 107.46-72.548 172.481v44.042c0 29.788 11.851 57.974 33.471 79.114 4.004 4.004 8.328 7.687 12.812 10.89 14.253-23.062 39.557-37.956 68.064-37.956 44.201 0 80.075 35.874 80.075 80.075s-35.874 80.235-79.915 80.235c-44.201 0-80.075-35.874-80.075-80.075 0-0.801 0-1.441 0-2.242-10.41-6.246-20.179-13.773-28.987-22.421-29.307-28.827-45.483-67.103-45.483-107.621v-44.042c0-75.75 30.108-147.178 85.040-201.148 34.913-34.432 77.833-59.255 124.757-72.549v-61.017c0-11.051 8.969-20.019 20.017-20.019h9.929v-22.1c0-26.105 16.816-48.365 40.038-56.533v-121.714c0-56.533 22.101-109.863 62.298-150.060 40.197-40.199 93.367-62.459 149.9-62.459 56.373 0 109.703 22.101 149.741 62.459 40.197 40.197 62.298 93.527 62.298 150.060v120.272c45.643 9.289 80.075 49.807 80.075 98.173-0.16 55.091-45.003 100.094-100.094 100.094zM484.934 871.117c0-0.16 0-0.16 0-0.16 0-0.16 0-0.16 0-0.32-4.163-17.937-20.499-30.909-38.915-30.909-22.101 0-40.038 17.937-40.038 40.198 0 22.101 17.937 40.198 40.038 40.198s40.037-17.937 40.037-40.198c-0.16-3.043-0.48-5.926-1.121-8.808zM154.545 919.962c22.1 0 40.037-17.937 40.037-40.198 0-22.101-17.937-40.198-40.037-40.198-18.577 0-34.913 12.972-39.077 31.229v0.16c-0.641 2.722-0.961 5.765-0.961 8.808 0 22.261 17.937 40.198 40.037 40.198zM249.673 388.905v100.253h100.094v-100.253h-100.094zM299.802 306.748c-11.051 0-20.019 8.969-20.019 20.019v22.1h40.037v-22.1c0-11.051-8.967-20.019-20.017-20.019zM684.001 306.748c-33.15 0-60.056 26.906-60.056 60.216 0 33.15 26.906 60.216 60.056 60.216s60.056-27.066 60.056-60.216c-0.16-33.311-27.064-60.216-60.056-60.216zM684.001 346.783c-11.049 0-20.017 8.969-20.017 20.019s8.969 20.019 20.017 20.019c11.051 0 20.019-8.969 20.019-20.019s-8.969-20.019-20.019-20.019z" />
<glyph unicode="&#xe91b;" glyph-name="28" d="M989.947-10.515h-58.544v604.877h19.688c32.121 0 58.544 26.163 58.544 58.544 0 32.123-26.163 58.545-58.544 58.545h-25.129l-60.358 180.815c-10.621 31.604-40.41 53.105-73.829 53.105h-559.543c-33.676 0-63.207-21.501-73.828-53.364l-60.358-180.815h-25.128c-32.122 0-58.286-26.163-58.286-58.286 0-32.121 26.164-58.544 58.545-58.544h19.688v-604.877h-58.804c-10.621 0-19.428-8.808-19.428-19.429s8.808-19.429 19.428-19.429h955.885c10.622 0 19.429 8.808 19.429 19.429s-8.806 19.429-19.429 19.429zM892.546 516.388v-136.777h-68.388v136.777h68.388zM195.19 879.832c5.439 16.061 20.205 26.682 37.043 26.682h559.543c16.838 0 31.863-10.621 37.045-26.682l56.212-168.38h-90.926c-8.806 0-17.355 2.331-24.868 6.735l-247.132 146.621c-6.216 3.627-13.728 3.627-19.686 0l-247.649-146.621c-7.513-4.403-16.061-6.735-24.87-6.735h-90.925l56.214 168.38zM53.491 652.906c0 10.88 8.808 19.688 19.688 19.688 189.364 0 22.019 0 156.983 0 15.802 0 31.085 4.144 44.815 12.175l237.029 140.662 237.288-140.662c13.469-8.032 29.013-12.175 44.814-12.175 141.44 0 107.764 0 156.984 0 10.88 0 19.686-8.808 19.686-19.688s-8.806-19.688-19.686-19.688h-176.154c-8.806 0-17.615 2.333-25.127 6.996l-227.703 136.518c-6.216 3.627-13.728 3.627-19.946 0l-227.703-136.518c-7.511-4.663-16.319-6.996-25.127-6.996h-176.152c-10.88 0-19.688 8.808-19.688 19.688zM131.464 379.61v136.777h68.389v-136.777h-68.389zM131.464 340.753h217.341c10.621 0 19.429 8.808 19.429 19.429s-8.808 19.429-19.429 19.429h-110.095v136.777h110.095c10.621 0 19.429 8.808 19.429 19.429s-8.808 19.429-19.429 19.429h-217.341v39.117h117.607c15.802 0 31.604 4.403 45.075 12.433l217.6 130.56 217.6-130.56c13.73-8.289 29.273-12.433 45.075-12.433h117.606v-39.117h-216.822c-10.621 0-19.429-8.808-19.429-19.429s8.808-19.429 19.429-19.429h109.836v-136.777h-109.836c-10.621 0-19.429-8.808-19.429-19.429s8.808-19.429 19.429-19.429h217.341v-351.268h-234.179v195.063c0 10.621-8.808 19.427-19.429 19.427h-253.607c-10.622 0-19.429-8.806-19.429-19.427v-195.063h-234.439v351.268zM531.434 165.12h87.817v-175.635h-87.817v175.635zM492.576-10.515h-87.817v175.635h87.817v-175.635zM498.804 326.246c7.513-6.735 18.91-6.735 26.163 0 89.89 82.118 82.896 75.643 83.413 76.16 30.309 30.309 30.309 79.787 0 110.355-26.163 26.163-66.316 29.79-96.625 10.88-30.049 18.91-70.461 15.283-96.625-10.88-30.309-30.309-30.309-79.787 0-110.355 0.777-0.259-5.181 5.441 83.673-76.16zM442.849 485.303c15.285 15.283 40.153 15.283 55.436 0 7.513-7.513 19.948-7.513 27.46 0 15.283 15.283 40.151 15.283 55.177 0 15.025-15.285 15.283-39.893 0.259-54.919l-69.166-63.466-69.425 63.466c-14.764 15.283-14.764 39.893 0.259 54.919z" />
<glyph unicode="&#xe91c;" glyph-name="29" horiz-adv-x="785" d="M264.001 64h-82.135c-10.933 0-19.999-9.066-19.999-20s9.066-20 19.999-20h82.135c10.933 0 19.999 9.068 19.999 20 0 10.935-9.066 20-19.999 20zM771.734 322.934c0 47.732-23.735 92.266-62.667 119.199v123.733c0 56.801-14.401 112.268-41.6 160.534-25.334 44.534-61.068 81.867-104.533 109.067l8.8 30.667c3.734 13.067 5.6 37.867-24.267 58.933-64.8 46.4-258.4 46.4-323.466 0.267-29.6-20.8-27.733-45.867-23.999-58.933l8.8-30.933c-43.201-26.933-79.2-64.267-104.534-108.8-27.2-48-41.6-103.467-41.6-160.532v-123.733c-38.934-26.935-62.667-71.735-62.667-119.467 0-51.734 26.667-98.133 69.867-124.001-17.867-30.133-28.8-70.132-29.867-124.8v-118.132c0-10.935 9.067-20 20-20h651.733c10.935 0 20 9.066 20 20v118.132c-0.8 54.668-11.733 94.401-29.867 124.8 43.201 26.134 69.868 72.533 69.868 124.001zM247.2 892.8c23.199 16.533 77.867 27.2 138.667 27.2s115.2-10.667 138.667-27.2c10.933-7.733 9.6-12.533 8.8-15.2l-29.6-103.2h-235.733l-29.599 103.2c-0.8 2.667-2.133 7.467 8.8 15.2zM365.867-24.001h-285.867v97.867c1.067 64.266 17.067 107.467 50.667 136.267 31.2 26.933 75.466 40.267 126.666 55.733 8.267 2.4 16.8 5.067 25.334 7.733l83.466-119.733-0.266-177.867zM315.201 296.533c0 0.8 0 1.333 0 2.133v35.732c22.132-7.467 45.865-11.465 70.666-11.465s48.532 3.999 70.666 11.465v-35.732c0-0.8 0-1.333 0-2.133l-70.666-101.333-70.666 101.333zM203.733 545.067v40.533c4-0.266 7.999-0.266 12-0.266 63.468 0 120.533 19.466 170.134 58.132 52.799-41.066 113.865-60.534 182.132-57.866v-40.533c0-100.533-81.599-182.134-182.132-182.134s-182.134 81.601-182.134 182.134zM691.732-24.001h-285.867v177.867l83.468 119.733c8.533-2.666 17.067-5.333 25.332-7.733 51.2-15.466 95.201-28.8 126.667-55.733 33.333-28.534 49.601-72.001 50.668-136.267v-97.867h-0.268zM677.333 230.932c-38.934 38.934-94.133 55.735-150.932 73.068-9.602 2.934-19.734 5.866-29.6 9.066v39.2c66.666 38.4 111.466 110.401 111.466 192.534v61.867c0 5.6-2.4 10.933-6.666 14.933-4.267 3.732-9.866 5.6-15.466 5.065-72.533-7.733-133.868 11.201-186.935 57.334-7.467 6.666-18.666 6.666-26.132 0-53.333-46.133-114.4-65.067-186.935-57.334-5.6 0.534-11.199-1.333-15.466-5.065-4.267-3.734-6.667-9.334-6.667-14.933v-61.867c0-82.133 44.8-154.134 111.466-192.534v-39.2c-10.132-3.2-20-6.132-29.6-9.066-57.066-17.333-112.266-34.133-150.932-73.068-33.867 18.401-54.933 53.067-54.933 92.001 0 37.333 20.267 72.265 52.533 90.933 6.133 3.466 10.133 10.132 10.133 17.333v134.934c0 94.399 43.467 178.4 117.599 229.333l13.334-46.667c2.4-8.533 10.4-14.401 19.2-14.401h265.866c8.8 0 16.8 5.868 19.2 14.401l13.334 46.667c74.132-50.933 117.6-134.934 117.6-229.333v-134.934c0-7.2 3.732-13.867 10.132-17.333 32.534-18.668 52.535-53.6 52.535-90.933 0.266-38.934-20.801-73.6-54.134-92.001z" />
<glyph unicode="&#xe91d;" glyph-name="30" d="M512 839.467c-82.934 0-150.4-67.466-150.4-150.4s67.466-150.4 150.4-150.4c82.934 0 150.4 67.466 150.4 150.4s-67.466 150.4-150.4 150.4zM512 578.4c-61.066 0-110.401 49.601-110.401 110.401 0 61.066 49.601 110.4 110.401 110.4s110.399-49.6 110.399-110.4c0-60.8-49.333-110.401-110.399-110.401zM1021.332 43.467c-8.8 28.8-81.865 265.6-90.933 294.4 19.466 17.867 28 45.6 19.734 72.533-11.467 37.065-50.668 57.866-87.735 46.399l-9.6-2.932-69.866 226.133c5.067 154.666-119.467 279.999-270.933 279.999s-275.734-125.6-270.933-279.999l-69.868-226.401-9.599 2.934c-37.067 11.467-76.267-9.334-87.733-46.401-8.267-26.665 0.267-54.666 19.733-72.533-9.067-28.532-82.133-265.332-90.933-294.132-9.867-31.734 8-65.333 39.733-75.201l96-29.6c31.467-9.866 65.334 8.001 75.2 39.735 8.8 28.8 81.867 265.6 90.933 294.4 25.868 3.732 48.8 22.132 57.068 48.8 11.467 37.065-9.334 76.266-46.401 87.733l-9.6 2.932 23.735 76.8c103.467-94.932 261.866-94.932 365.599 0l23.735-76.8-9.6-2.932c-37.067-11.467-57.868-50.668-46.401-87.733 8.267-26.668 31.2-45.068 57.068-48.8 8.8-28.8 81.865-265.6 90.933-294.4 9.866-31.734 43.733-49.601 75.199-39.735l96 29.6c31.468 9.868 49.335 43.467 39.467 75.201zM814.399 441.866l-57.6-17.865-30.665 98.932c17.067 22.134 30.933 46.667 40.533 73.334l47.732-154.4zM257.333 596.533c9.6-26.667 23.467-51.466 40.533-73.334l-30.667-98.932-57.6 17.865 47.734 154.4zM175.466-9.866c-3.2-10.667-14.666-16.534-25.333-13.334l-96 29.6c-10.667 3.2-16.533 14.667-13.333 25.334l59.2 192 134.667-41.6-59.201-192zM246.4 220.534l-134.4 41.334 17.867 57.6 134.401-41.602-17.867-57.332zM323.2 333.332c-4.801-15.998-21.868-24.8-37.868-19.999l-153.599 47.466c-16 4.801-24.8 21.868-20 37.868s21.867 24.8 37.867 19.999l153.6-47.466c16-5.067 25.068-21.866 20-37.868zM512 457.866c-127.468 0-230.934 103.733-230.934 230.934 0 127.466 103.735 230.933 230.934 230.933 127.466 0 230.932-103.733 230.932-230.933s-103.467-230.934-230.932-230.934zM700.8 333.332c-4.801 16.002 4 32.8 20 37.868l153.6 47.466c16 4.801 32.799-3.999 37.866-19.999 4.801-16-4-32.8-20-37.868l-153.6-47.466c-16-4.801-33.067 4.267-37.866 19.999zM759.733 278.134l134.4 41.6 17.867-57.6-134.4-41.6-17.867 57.6zM969.866 6.4l-96-29.6c-10.667-3.2-21.866 2.668-25.334 13.334l-59.199 192 134.4 41.6 59.199-192c3.468-10.667-2.4-21.868-13.066-25.334z" />
<glyph unicode="&#xe91e;" glyph-name="31" horiz-adv-x="922" d="M831.607 179l-74.8 192c-11.201 28.6-30.401 53.001-55.799 70.2-25.4 17.399-55.001 26.6-85.801 26.6h-68.4c-6.001 6.4-12.401 12.599-18.801 18.599v148c0 45.399-22.799 85.4-57.399 109.6 34.4 20.198 57.399 57.399 57.399 99.999 0 64-51.999 116-115.999 116s-116-52-116-116c0-35.6 16.2-67.4 41.4-88.8-25.001-11.8-46.201-31.2-60.001-56.201-23.999-43.399-37.999-91.8-40.8-141.199-51.4-13.401-98.8-39.4-137.6-76.199-42.2-40.001-72.6-90.6-87.8-146.401-3-10.6 3.4-21.6 14-24.6 1.8-0.399 3.6-0.8 5.2-0.8 8.8 0 16.8 5.801 19.2 14.8 24.8 91.201 96.6 164.2 186.401 191.401v-59.201c-38.4-15-71.601-40.199-96.401-73.6-28.6-37.999-43.6-83.4-43.6-131.2 0-121.4 98.6-220 220.001-220 121.399 0 220 98.599 220 220 0 100.601-68 187.6-164 212.801v57.6c126.8-26.001 220-138.6 220-270.401 0-152.199-123.8-275.999-275.999-275.999-122.6 0-231.601 82.2-265.401 199.799-3 10.6-14.2 16.8-24.8 13.8s-16.8-14.201-13.8-24.801c18.6-64.599 58.2-122.8 112-163.999 55.6-42.4 122-64.8 192.001-64.8 94.599 0 179.799 41.8 237.599 108h342.4c11.001 0 20 9.001 20 20v17.399c0 49.601-36.799 90.8-84.4 97.601zM336.007 844c0 42 34 76 76.001 76 41.999 0 76-34 76-76s-34-76-76-76c-42.001 0-76.001 34-76.001 76zM496.007 252c0-99.2-80.799-179.999-179.999-179.999s-180.001 80.799-180.001 179.999c0 69.601 39.201 131.4 100.001 161.401v-35.401c0-37.4 30.599-67.999 67.999-67.999s68 30.599 68 67.999v45.201c73.001-23.801 124-92.401 124-171.201zM488.008 517.2c-34.4 22.4-73.6 38.4-116 45.8v8.201c0 10.999-8.999 19.999-20 19.999-10.999 0-19.999-8.999-19.999-19.999v-193.201c0-15.399-12.6-28-28.001-28-15.399 0-28 12.6-28 28v161.201c0 48.998 12.6 97.599 36.4 140.599 16.601 29.8 48 48.2 82 48.2 51.599 0 93.6-41.999 93.6-93.599v-117.2zM583.607 84c30.601 48.599 48.401 106.399 48.401 167.999 0 8.001-0.401 16-1 24.001h2.2l87.2-192h-136.801zM764.407 84l-100 220.199c-3.2 7.2-10.4 11.8-18.2 11.8h-20.799c-8.4 40.6-24.4 78.401-46.8 111.8h36.799c46.401 0 87.4-28 104.201-71.2l79.2-203.8c3-7.6 10.4-12.8 18.601-12.8 31.399 0 57.199-24.8 58.399-55.999h-111.399zM34.2 236.199c3.8 3.801 5.8 8.801 5.8 14.201 0 5.2-2.2 10.399-5.8 14.199-3.8 3.801-8.8 5.801-14.2 5.801-5.2 0-10.4-2.202-14.2-5.801-3.8-3.801-5.8-8.8-5.8-14.199 0-5.2 2.2-10.4 5.8-14.201 3.8-3.799 8.8-5.799 14.2-5.799 5.2 0 10.4 2 14.2 5.799zM376.195 150.001c3.999-4.601 9.6-7.001 15.2-7.001 4.599 0 9.199 1.601 13 4.801 30.601 25.999 48.2 64 48.2 104.199 0 11.001-8.999 20-20 20-10.999 0-19.999-8.999-19.999-20 0-28.399-12.401-55.4-34.2-73.8-8.4-6.999-9.4-19.801-2.2-28.199zM316.199 155.401h-0.2c-10.999 0-19.999-9.001-19.999-20s8.999-20 19.999-20h0.601c10.999 0.2 19.799 9.201 19.799 20.2-0.2 10.8-9.199 19.801-20.2 19.801z" />
<glyph unicode="&#xe91f;" glyph-name="32" horiz-adv-x="936" d="M855.344 71.971c-37.723 0-68.588-30.594-68.588-67.986 0-37.394 30.865-67.986 68.588-67.986 37.926 0 68.589 30.593 68.589 67.986s-30.865 67.986-68.589 67.986zM855.344-24.010c-15.533 0-28.242 12.598-28.242 27.995s12.709 27.995 28.242 27.995c15.534 0 28.242-12.598 28.242-27.995s-12.708-27.995-28.242-27.995zM835.167 363.916v-151.97c0-10.998 9.077-19.996 20.173-19.996 11.094 0 20.173 8.998 20.173 19.996v270.947c0 38.393-31.47 69.587-70.203 69.587h-198.703c3.43 8.198 5.044 17.196 4.64 26.394-1.21 34.594-30.057 61.588-65.561 61.588h-48.012c-6.656 0-13.515 0.399-20.173 1.001-50.634 4.798-92.593 42.591-104.697 93.781-2.219 9.598-5.85 18.596-10.692 26.795 44.38 10.598 77.262 50.39 77.262 97.581 0 55.389-45.39 100.38-101.268 100.38s-101.268-44.991-101.268-100.38c0-19.396 5.648-37.593 15.331-52.99-26.427-7.199-49.423-25.395-61.728-50.59-32.882-66.387-50.231-140.572-50.231-214.557v-73.586c0-35.994 7.666-71.386 21.989-103.98l-23.401-126.575-95.821-122.176c-0.403-0.399-0.807-0.999-1.009-1.6 0 0 0 0.001-0.202-0.199l-37.32-59.989c-4.236-6.599-5.447-14.596-3.631-22.196 1.816-7.598 6.455-14.197 13.314-18.196l121.037-73.985c3.228-2 6.859-2.999 10.692-2.999 1.614 0 3.025 0.2 4.64 0.6 5.244 1.2 9.683 4.399 12.506 8.998 14.121 22.796 18.559 49.591 12.306 75.586-1.815 7.598-4.437 14.797-7.867 21.596l43.574 48.59-6.859-52.59v-0.2c0-0.399 0-0.8 0-1.2s0-0.6 0-1.001v-80.184c0-10.998 9.078-19.996 20.173-19.996h151.7c11.096 0 20.173 8.998 20.173 19.996 0 32.594-15.734 61.387-40.144 79.784l32.478 195.161c6.456 38.794 3.429 78.986-8.473 116.378l-39.538 123.777v80.583c48.011-25.594 101.873-39.191 157.348-39.191h34.092c-4.236-8.998-6.656-18.997-6.656-29.595v-526.297c0-10.998 9.077-19.996 20.173-19.996 11.094 0 20.173 8.998 20.173 19.996v407.12h269.509zM835.167 482.894v-78.986h-269.711v78.986c0 16.396 13.515 29.594 29.855 29.594h209.797c16.744 0 30.059-13.198 30.059-29.594zM338.309 919.808c33.486 0 60.922-26.995 60.922-60.388 0-33.194-27.234-60.388-60.922-60.388s-60.922 26.995-60.922 60.388c0 33.394 27.234 60.388 60.922 60.388zM136.177-14.61l-91.787 56.188 21.181 33.994 43.372-26.595c13.718-8.398 23.401-21.596 27.032-37.193 2.017-8.798 2.219-17.796 0.202-26.394zM142.834 75.372l-54.063 32.995 84.927 108.379c2.017 2.599 3.429 5.598 3.833 8.597l15.734 85.584c8.877-11.599 18.761-22.597 29.655-32.794l10.692-9.999-13.719-106.778-77.060-85.984zM244.303-24.008v39.993h50.836c26.225 0 48.818-16.797 57.089-39.993h-107.925zM348.597 237.341l-30.057-181.365h-71.412l12.104 94.182 15.936 123.175c0.807 6.4-1.412 12.799-6.254 17.197l-18.156 16.797c-39.74 36.792-64.351 87.183-69.193 140.573h123.862l36.109-112.779c9.885-31.393 12.507-65.186 7.061-97.78zM331.854 603.67c0 0-0.202 0-0.202 0.199-14.323 9.999-28.040 21.197-40.547 33.595-7.867 7.798-20.577 7.798-28.444 0s-7.867-20.397 0-28.195c11.7-11.598 24.207-22.395 37.522-31.994 0-0.199 0-0.399 0-0.6v-88.782h-119.625v53.59c0 67.786 15.936 135.973 46.196 196.961 10.288 20.996 33.084 33.593 56.484 31.394 24.611-2.2 44.784-19.797 50.432-43.592 15.936-67.787 72.22-117.778 140-124.375 7.867-0.8 16.138-1.201 24.005-1.201h48.012c13.515 0 24.812-10.398 25.215-23.195 0.202-6.599-2.219-12.797-6.859-17.597-4.639-4.798-10.691-7.398-17.348-7.398h-49.020c-59.711 0-117.002 17.796-165.821 51.19z" />
<glyph unicode="&#xe920;" glyph-name="33" horiz-adv-x="790" d="M684.001 467.058c-55.091 0-100.095-45.002-100.095-100.095 0-48.365 34.433-88.883 80.075-98.171v-120.273c0-45.804-17.936-89.044-50.608-121.714-32.67-32.671-75.751-50.608-121.553-50.608-45.804 0-88.883 17.936-121.555 50.608-32.67 32.67-50.608 75.911-50.608 121.714v121.714c23.223 8.167 40.038 30.429 40.038 56.532v22.101h9.928c11.050 0 20.019 8.969 20.019 20.019v60.858c47.244 13.132 90.324 38.115 125.558 72.707 54.771 53.971 85.039 125.398 85.039 201.149v44.042c0 40.678-16.175 78.793-45.483 107.62-8.808 8.648-18.577 16.175-28.987 22.421 0 0.801 0 1.441 0 2.242 0 44.201-35.874 80.075-80.075 80.075-44.041 0-80.075-35.874-80.075-80.075s35.874-80.076 80.075-80.076c28.507 0 53.971 14.734 68.064 37.956 4.485-3.363 8.808-6.887 12.812-10.89 21.621-21.299 33.472-49.326 33.472-79.114v-44.041c0-65.021-25.944-126.199-73.029-172.642-27.705-27.225-61.017-47.404-97.53-59.415v37.635c0 11.050-8.969 20.019-20.019 20.019h-140.131c-11.050 0-20.019-8.969-20.019-20.019v-37.315c-36.194 12.010-69.185 32.19-96.73 59.095-46.604 46.122-72.548 107.46-72.548 172.481v44.042c0 29.787 11.851 57.974 33.471 79.114 4.004 4.004 8.328 7.687 12.812 10.89 14.253-23.062 39.557-37.955 68.063-37.955 44.202 0 80.075 35.873 80.075 80.075s-35.874 80.235-79.914 80.235c-44.202 0-80.075-35.874-80.075-80.075 0-0.801 0-1.441 0-2.242-10.41-6.246-20.179-13.773-28.987-22.421-29.307-28.827-45.483-67.104-45.483-107.62v-44.042c0-75.751 30.108-147.178 85.040-201.149 34.913-34.431 77.833-59.254 124.757-72.547v-61.017c0-11.050 8.967-20.019 20.018-20.019h9.93v-22.101c0-26.103 16.816-48.365 40.037-56.532v-121.714c0-56.534 22.101-109.863 62.299-150.061s93.368-62.458 149.9-62.458c56.373 0 109.703 22.101 149.741 62.458 40.198 40.198 62.299 93.528 62.299 150.061v120.273c45.643 9.288 80.075 49.806 80.075 98.171-0.161 55.093-45.003 100.095-100.095 100.095zM484.934 871.117c0-0.16 0-0.16 0-0.16 0-0.16 0-0.16 0-0.32-4.163-17.937-20.499-30.909-38.916-30.909-22.101 0-40.037 17.937-40.037 40.198 0 22.101 17.936 40.198 40.037 40.198s40.038-17.937 40.038-40.198c-0.161-3.043-0.481-5.926-1.122-8.808zM154.545 919.962c22.101 0 40.037-17.937 40.037-40.198 0-22.101-17.936-40.198-40.037-40.198-18.578 0-34.913 12.972-39.077 31.229v0.16c-0.641 2.723-0.961 5.765-0.961 8.808 0 22.261 17.937 40.198 40.038 40.198zM249.675 388.905v100.254h100.093v-100.254h-100.093zM299.801 306.748c-11.050 0-20.019 8.967-20.019 20.018v22.101h40.038v-22.101c0-11.050-8.969-20.018-20.019-20.018zM684.001 306.748c-33.151 0-60.056 26.905-60.056 60.216 0 33.151 26.905 60.217 60.056 60.217s60.056-27.066 60.056-60.217c-0.159-33.311-27.066-60.216-60.056-60.216zM684.004 346.783c-11.050 0-20.019 8.969-20.019 20.019s8.969 20.019 20.019 20.019c11.050 0 20.019-8.969 20.019-20.019s-8.969-20.019-20.019-20.019z" />
<glyph unicode="&#xe921;" glyph-name="34" d="M989.943-10.515h-58.545v604.877h19.687c32.123 0 58.545 26.165 58.545 58.545 0 32.121-26.163 58.545-58.545 58.545h-25.127l-60.357 180.815c-10.622 31.604-40.411 53.105-73.829 53.105h-559.543c-33.676 0-63.207-21.501-73.829-53.364l-60.358-180.815h-25.127c-32.122 0-58.286-26.165-58.286-58.286s26.164-58.545 58.545-58.545h19.688v-604.877h-58.804c-10.621 0-19.428-8.806-19.428-19.428 0-10.62 8.808-19.428 19.428-19.428h955.886c10.62 0 19.428 8.808 19.428 19.428 0 10.622-8.808 19.428-19.428 19.428zM892.54 516.389v-136.777h-68.389v136.777h68.389zM195.185 879.832c5.44 16.061 20.206 26.682 37.044 26.682h559.543c16.837 0 31.862-10.621 37.044-26.682l56.213-168.381h-90.925c-8.808 0-17.357 2.332-24.869 6.735l-247.132 146.621c-6.217 3.627-13.729 3.627-19.687 0l-247.65-146.621c-7.512-4.403-16.061-6.735-24.869-6.735h-90.925l56.213 168.381zM53.486 652.907c0 10.879 8.808 19.687 19.688 19.687 189.364 0 22.019 0 156.982 0 15.802 0 31.086 4.146 44.816 12.175l237.028 140.663 237.287-140.663c13.471-8.030 29.014-12.175 44.816-12.175 141.439 0 107.763 0 156.982 0 10.881 0 19.689-8.808 19.689-19.687 0-10.881-8.808-19.687-19.689-19.687h-176.151c-8.808 0-17.616 2.33-25.129 6.994l-227.702 136.518c-6.217 3.626-13.729 3.626-19.946 0l-227.702-136.518c-7.513-4.664-16.321-6.994-25.129-6.994h-176.152c-10.88 0-19.688 8.806-19.688 19.687zM131.459 379.611v136.777h68.389v-136.777h-68.389zM131.459 340.755h217.342c10.62 0 19.428 8.806 19.428 19.428 0 10.62-8.808 19.428-19.428 19.428h-110.096v136.777h110.096c10.62 0 19.428 8.808 19.428 19.428 0 10.622-8.808 19.428-19.428 19.428h-217.342v39.117h117.607c15.802 0 31.605 4.405 45.075 12.434l217.6 130.56 217.6-130.56c13.729-8.29 29.272-12.434 45.074-12.434h117.608v-39.117h-216.823c-10.62 0-19.428-8.806-19.428-19.428 0-10.62 8.808-19.428 19.428-19.428h109.837v-136.777h-109.837c-10.62 0-19.428-8.808-19.428-19.428 0-10.622 8.808-19.428 19.428-19.428h217.341v-351.27h-234.179v195.063c0 10.622-8.808 19.428-19.428 19.428h-253.608c-10.62 0-19.428-8.806-19.428-19.428v-195.063h-234.438v351.27zM531.428 165.12h87.817v-175.635h-87.817v175.635zM492.572-10.515h-87.817v175.635h87.817v-175.635zM498.789 326.248c7.513-6.735 18.91-6.735 26.165 0 89.89 82.119 82.894 75.641 83.414 76.161 30.307 30.307 30.307 79.786 0 110.354-26.165 26.165-66.317 29.791-96.625 10.881-30.050 18.91-70.461 15.284-96.626-10.881-30.307-30.309-30.307-79.787 0-110.354 0.778-0.259-5.18 5.439 83.673-76.161zM442.835 485.303c15.284 15.284 40.153 15.284 55.436 0 7.513-7.512 19.948-7.512 27.459 0 15.284 15.284 40.153 15.284 55.178 0s15.284-39.894 0.259-54.917l-69.165-63.468-69.426 63.468c-14.765 15.284-14.765 39.892 0.259 54.917z" />
<glyph unicode="&#xe922;" glyph-name="35" horiz-adv-x="775" d="M264.005 64h-82.134c-10.933 0-20-9.067-20-20s9.067-20 20-20h82.134c10.933 0 20 9.067 20 20s-9.067 20-20 20zM771.733 322.933c0 47.733-23.733 92.267-62.666 119.201v123.733c0 56.8-14.4 112.267-41.601 160.532-25.334 44.534-61.067 81.867-104.533 109.067l8.799 30.667c3.733 13.067 5.6 37.867-24.266 58.933-64.8 46.4-258.401 46.4-323.467 0.267-29.599-20.8-27.733-45.867-24-58.933l8.799-30.933c-43.2-26.934-79.199-64.267-104.533-108.8-27.2-48.001-41.6-103.466-41.6-160.534v-123.733c-38.933-26.934-62.667-71.734-62.667-119.467 0-51.732 26.667-98.133 69.867-123.999-17.867-30.133-28.8-70.134-29.867-124.801v-118.133c0-10.933 9.067-20 20-20h651.733c10.933 0 20 9.067 20 20v118.133c-0.8 54.667-11.732 94.4-29.866 124.801 43.2 26.132 69.866 72.533 69.866 123.999zM247.199 892.8c23.201 16.533 77.868 27.2 138.667 27.2 60.801 0 115.2-10.667 138.667-27.2 10.933-7.733 9.599-12.533 8.799-15.2l-29.599-103.2h-235.734l-29.599 103.2c-0.8 2.667-2.134 7.467 8.799 15.2zM365.866-24h-285.866v97.867c1.067 64.266 17.067 107.466 50.667 136.267 31.2 26.933 75.466 40.267 126.666 55.733 8.267 2.399 16.801 5.066 25.334 7.733l83.466-119.733-0.266-177.866zM315.2 296.533c0 0.8 0 1.334 0 2.134v35.733c22.133-7.466 45.866-11.467 70.666-11.467s48.533 4.001 70.666 11.467v-35.733c0-0.8 0-1.334 0-2.134l-70.666-101.334-70.666 101.334zM203.734 545.066v40.533c3.999-0.266 8-0.266 12-0.266 63.466 0 120.534 19.466 170.133 58.134 52.8-41.067 113.867-60.533 182.133-57.868v-40.533c0-100.533-81.6-182.133-182.133-182.133s-182.133 81.6-182.133 182.133zM691.734-24h-285.867v177.866l83.466 119.733c8.534-2.667 17.067-5.334 25.334-7.733 51.2-15.467 95.2-28.801 126.666-55.733 33.334-28.533 49.601-72 50.668-136.267v-97.867h-0.266zM677.334 230.934c-38.934 38.932-94.133 55.732-150.933 73.065-9.601 2.934-19.734 5.868-29.601 9.067v39.2c66.667 38.4 111.467 110.4 111.467 192.534v61.866c0 5.601-2.399 10.933-6.666 14.934-4.267 3.733-9.867 5.6-15.467 5.066-72.533-7.733-133.866 11.201-186.933 57.334-7.468 6.666-18.668 6.666-26.134 0-53.333-46.133-114.4-65.066-186.933-57.334-5.601 0.534-11.201-1.333-15.467-5.066s-6.668-9.333-6.668-14.934v-61.866c0-82.134 44.8-154.134 111.467-192.534v-39.2c-10.133-3.199-20-6.132-29.599-9.067-57.068-17.333-112.267-34.133-150.934-73.065-33.867 18.4-54.933 53.067-54.933 91.999 0 37.334 20.267 72.267 52.533 90.934 6.133 3.466 10.133 10.133 10.133 17.333v134.932c0 94.4 43.467 178.4 117.6 229.334l13.334-46.667c2.399-8.533 10.399-14.4 19.2-14.4h265.866c8.801 0 16.801 5.868 19.2 14.4l13.334 46.667c74.133-50.934 117.601-134.934 117.601-229.334v-134.932c0-7.2 3.733-13.868 10.133-17.333 32.532-18.668 52.533-53.601 52.533-90.934 0.266-38.932-20.8-73.599-54.133-91.999z" />
<glyph unicode="&#xe923;" glyph-name="36" d="M512 839.468c-82.934 0-150.399-67.467-150.399-150.401 0-82.932 67.466-150.399 150.399-150.399s150.399 67.467 150.399 150.399c0 82.934-67.466 150.401-150.399 150.401zM512 578.401c-61.067 0-110.4 49.601-110.4 110.4 0 61.067 49.6 110.4 110.4 110.4s110.4-49.6 110.4-110.4c0-60.799-49.333-110.4-110.4-110.4zM1021.341 43.467c-8.801 28.799-81.867 265.599-90.934 294.4 19.468 17.866 28.001 45.599 19.734 72.533-11.467 37.066-50.666 57.866-87.733 46.4l-9.601-2.934-69.866 226.134c5.067 154.666-119.467 280-270.933 280s-275.734-125.6-270.934-280l-69.866-226.401-9.601 2.933c-37.066 11.467-76.266-9.333-87.733-46.399-8.267-26.668 0.267-54.667 19.733-72.534-9.067-28.533-82.133-265.333-90.933-294.132-9.867-31.734 8-65.334 39.733-75.201l96-29.599c31.467-9.867 65.334 8 75.199 39.733 8.801 28.801 81.867 265.601 90.934 294.4 25.866 3.733 48.799 22.134 57.066 48.801 11.467 37.066-9.333 76.266-46.4 87.733l-9.599 2.933 23.733 76.8c103.466-94.934 261.866-94.934 365.6 0l23.733-76.8-9.601-2.933c-37.066-11.467-57.866-50.668-46.399-87.733 8.267-26.666 31.2-45.068 57.066-48.801 8.801-28.799 81.867-265.599 90.933-294.4 9.867-31.732 43.734-49.6 75.201-39.733l96 29.599c31.466 9.867 49.333 43.467 39.466 75.201zM814.408 441.866l-57.601-17.866-30.666 98.933c17.067 22.133 30.934 46.667 40.533 73.333l47.734-154.4zM257.34 596.533c9.601-26.666 23.467-51.466 40.534-73.333l-30.667-98.933-57.6 17.867 47.733 154.399zM175.474-9.867c-3.201-10.666-14.667-16.533-25.334-13.332l-96 29.599c-10.667 3.199-16.533 14.667-13.333 25.334l59.2 192 134.666-41.601-59.199-192zM246.407 220.533l-134.4 41.333 17.867 57.6 134.4-41.599-17.867-57.334zM323.207 333.334c-4.8-16.001-21.867-24.801-37.866-20l-153.6 47.467c-16 4.8-24.8 21.867-20 37.866 4.8 16.001 21.867 24.8 37.866 20l153.6-47.467c16.001-5.067 25.068-21.867 20-37.866zM512.007 457.867c-127.468 0-230.934 103.733-230.934 230.932 0 127.467 103.734 230.934 230.934 230.934 127.466 0 230.932-103.733 230.932-230.934s-103.466-230.932-230.932-230.932zM700.807 333.334c-4.8 15.999 4.001 32.799 20 37.866l153.6 47.467c16.001 4.8 32.8-3.999 37.868-20 4.8-15.999-4.001-32.8-20-37.866l-153.6-47.467c-16.001-4.801-33.068 4.266-37.868 20zM759.741 278.133l134.4 41.601 17.866-57.6-134.4-41.601-17.866 57.6zM969.874 6.4l-96-29.599c-10.667-3.201-21.867 2.667-25.334 13.332l-59.2 192 134.4 41.601 59.2-192c3.467-10.667-2.401-21.867-13.066-25.334z" />
<glyph unicode="&#xe924;" glyph-name="37" horiz-adv-x="922" d="M831.598 179l-74.8 192c-11.2 28.6-30.4 53.001-55.799 70.201-25.4 17.399-55.001 26.599-85.801 26.599h-68.399c-6.001 6.4-12.401 12.6-18.801 18.6v148c0 45.4-22.8 85.4-57.4 109.6 34.399 20.199 57.4 57.4 57.4 100 0 64-52 116-116 116s-116-52-116-116c0-35.6 16.201-67.4 41.4-88.8-25-11.799-46.2-31.2-60.001-56.2-24-43.4-37.999-91.8-40.799-141.199-51.4-13.401-98.8-39.401-137.6-76.2-42.2-40-72.6-90.601-87.8-146.4-3-10.6 3.4-21.601 14-24.601 1.8-0.399 3.6-0.8 5.2-0.8 8.8 0 16.8 5.8 19.2 14.801 24.8 91.199 96.6 164.2 186.4 191.399v-59.199c-38.4-15-71.601-40.201-96.4-73.601-28.6-37.999-43.6-83.4-43.6-131.199 0-121.401 98.6-220.001 220-220.001s220.001 98.599 220.001 220.001c0 100.599-68.001 187.6-164.001 212.799v57.6c126.8-25.999 220.001-138.6 220.001-270.399 0-152.2-123.8-276-276-276-122.599 0-231.6 82.199-265.4 199.8-3 10.6-14.2 16.799-24.8 13.799s-16.8-14.2-13.8-24.8c18.6-64.6 58.2-122.8 112-163.999 55.6-42.401 122.001-64.8 192-64.8 94.6 0 179.8 41.8 237.6 108h342.401c10.999 0 19.999 8.999 19.999 20v17.401c0 49.6-36.8 90.8-84.4 97.599zM335.998 844c0 42 34 76 76 76s76-34 76-76c0-42-34-76-76-76s-76 34-76 76zM495.998 252.001c0-99.201-80.799-180-180-180-99.199 0-180 80.799-180 180 0 69.6 39.2 131.4 100 161.4v-35.401c0-37.399 30.6-67.999 67.999-67.999s67.999 30.6 67.999 67.999v45.201c73.001-23.801 124.001-92.4 124.001-171.2zM487.997 517.2c-34.399 22.399-73.599 38.4-116 45.799v8.201c0 10.999-8.999 20-19.999 20s-20-9.001-20-20v-193.201c0-15.399-12.601-27.999-28.001-27.999s-28.001 12.6-28.001 27.999v161.201c0 49 12.601 97.599 36.4 140.6 16.601 29.8 48.001 48.2 82 48.2 51.599 0 93.599-42 93.599-93.599v-117.2zM583.598 84c30.6 48.601 48.4 106.399 48.4 168 0 7.999-0.401 15.999-1.001 24h2.2l87.201-192h-136.801zM764.398 84l-100.001 220.199c-3.199 7.2-10.399 11.801-18.199 11.801h-20.8c-8.4 40.6-24.4 78.399-46.8 111.799h36.8c46.4 0 87.4-27.999 104.201-71.199l79.199-203.801c3-7.6 10.401-12.8 18.6-12.8 31.4 0 57.201-24.8 58.4-56h-111.399zM34.2 236.2c3.8 3.799 5.8 8.799 5.8 14.2 0 5.2-2.2 10.399-5.8 14.2-3.8 3.801-8.8 5.8-14.2 5.8-5.2 0-10.4-2.2-14.2-5.8-3.8-3.801-5.8-8.801-5.8-14.2 0-5.2 2.2-10.401 5.8-14.2 3.8-3.801 8.8-5.8 14.2-5.8 5.2 0 10.4 2 14.2 5.8zM376.197 150c3.999-4.599 9.601-7 15.201-7 4.599 0 9.2 1.6 12.999 4.8 30.6 26.001 48.201 64 48.201 104.201 0 10.999-9.001 20-20 20-11.001 0-20-9.001-20-20 0-28.4-12.401-55.4-34.2-73.801-8.4-7-9.4-19.8-2.2-28.199zM316.199 155.399h-0.199c-11.001 0-20-8.999-20-19.999s8.999-20 20-20h0.6c10.999 0.199 19.8 9.2 19.8 20.199-0.2 10.8-9.2 19.8-20.201 19.8z" />
<glyph unicode="&#xe925;" glyph-name="38" horiz-adv-x="922" d="M105.070 128.001c-3.467-10.399 2.4-21.867 12.8-25.334 2.133-0.532 4-1.066 6.133-1.066 8.8 0 16.267 5.6 18.933 13.866 1.6 5.067 1.333 10.401-1.333 15.201-2.4 4.8-6.667 8.267-11.733 9.867-2.133 0.532-4 1.066-6.133 1.066-8.267 0.266-16-5.334-18.667-13.6zM908.269 829.867c2.667 5.867 2.399 12.8-1.066 18.4-3.467 5.6-9.334 9.333-15.734 9.6-43.734 3.2-79.467 19.467-108.266 32.533-9.333 4.267-18.4 8.267-26.934 11.467-8.799 3.467-19.2 7.733-30.4 12.533-45.066 19.467-106.933 45.6-157.866 45.6-161.6 0-292.801-131.467-292.801-292.8 0-47.733 10.401-98.134 29.601-144.001-15.467-8.267-29.333-19.466-41.067-33.333-38.134-45.6-42.401-108.268-15.467-157.601-6.934-4.266-13.6-8.799-20-13.866-34.133-26.4-64.266-62.133-87.2-104-5.333-9.599-1.6-21.865 7.999-27.199 2.934-1.6 6.134-2.401 9.601-2.401 7.466 0 14.133 3.999 17.6 10.401 19.734 36.266 46.933 68.8 76.266 91.467 6.668 5.066 13.334 9.599 20 13.599 2.667-2.665 5.334-5.332 8.267-7.733 26.134-21.867 58.134-32.8 89.868-32.8 31.732 0 63.2 10.667 88.8 31.734 12-8.534 22.933-18.668 33.066-30.667 33.066-39.466 51.466-95.2 51.466-156.799v-128h-434.666c2.133 12.266 5.6 31.732 10.667 54.399 1.067 5.334 0.267 10.667-2.667 15.201s-7.2 7.733-12.533 8.799c-5.867 1.334-12-0.266-16.8-3.733-3.467-2.933-6.133-6.932-7.2-11.2-10.133-45.332-14.667-78.933-14.933-80.533-0.8-5.6 1.067-11.466 4.8-15.733s9.333-6.934 14.933-6.934h478.134c5.334 0 10.399 2.134 14.133 5.868s5.868 8.799 5.868 14.133v147.734c0 35.199-5.334 68.533-15.467 99.733 62.666 50.934 93.599 103.2 105.333 126.934h102.934c28.267 0 49.333 20.266 49.333 47.199v113.601h20.799c23.467 0 44.8 21.333 44.8 44.8 0 6.132 0 8.267-36.266 78.133-13.866 26.666-28.001 53.333-32.534 62.133-2.133 12-4.533 23.733-7.466 34.933 57.866 41.333 91.2 114.134 93.067 118.4zM314.936 667.2c0 139.466 113.333 252.8 252.799 252.8 42.933 0 100.533-24.267 142.4-42.133 11.467-4.8 22.399-9.333 31.734-13.067 7.466-2.933 15.733-6.667 24.8-10.667 25.334-11.467 55.199-25.067 92.267-32-21.067-36.266-66.933-99.734-125.067-99.734-28.801 0-53.333 4.533-75.2 8.533l-4.801 0.8c-6.932 1.334-14.399-1.333-18.932-6.932l-45.068-53.601c-11.466 5.334-24 8.267-37.066 8.267-48.533 0-88-39.466-88-88 0-18.4 5.866-36.533 16.533-51.2l-23.201-30.667c-28.267 22.401-63.466 33.068-99.466 30.133-5.601-0.532-10.933-1.333-16.267-2.399-17.867 40.799-27.467 86.399-27.467 129.867zM306.401 323.201c-42.133 35.466-47.733 98.665-12.266 140.8 17.067 20.533 41.333 33.066 67.999 35.466 2.934 0.268 5.868 0.268 8.801 0.268 23.467 0 45.866-8.267 64-23.467 20.533-17.067 33.066-41.333 35.467-67.999 2.399-26.668-5.868-52.534-22.933-73.067-35.733-41.867-98.934-47.467-141.068-12zM784.268 666.666c0.266-2.133 1.066-4.267 2.133-6.134 27.467-51.732 57.068-109.332 64.8-125.866-1.066-1.6-2.933-3.201-3.999-3.201h-40.801c-10.933 0-20-9.067-20-20v-133.6c0-6.132-5.866-7.2-9.333-7.2h-115.732c-8.267 0-15.734-5.066-18.668-12.8-0.266-0.532-22.667-57.6-89.866-115.466-8.267 16.001-18.134 30.934-29.333 44.268-10.933 13.066-23.201 24.532-36.533 34.665 18.134 26.668 26.4 58.4 23.733 90.934-2.134 24.8-10.667 47.733-24.534 67.733l23.733 31.466 29.333-27.467c3.733-3.466 8.801-5.332 13.6-5.332 5.334 0 10.667 2.133 14.667 6.4 7.466 7.999 7.2 20.799-1.066 28.265l-45.6 42.667c0 0 0 0-0.266 0.266-9.867 9.067-15.734 21.867-15.734 35.467 0 26.4 21.601 48.001 48.001 48.001 10.667 0 20.8-3.467 29.333-9.867 8.533-6.666 20.8-5.334 27.467 2.933l48.533 57.866c21.867-3.999 46.4-7.999 75.734-7.999 16.267 0 31.466 3.199 45.6 8.799 1.867-8.267 3.467-16.533 4.8-24.8zM409.332 445.869c-12.266 10.401-27.733 15.201-43.734 13.866-15.999-1.333-30.4-8.799-40.799-21.333-10.401-12.266-15.201-27.733-13.868-43.734 1.334-15.999 8.801-30.4 21.067-40.799 11.201-9.334 24.801-14.134 38.4-14.134 17.067 0 34.134 7.2 46.134 21.333 21.333 25.6 18.134 63.468-7.2 84.8zM386.133 386.936c-3.467-4.001-8.267-6.668-13.6-6.934-5.334-0.532-10.401 1.066-14.667 4.533-4.001 3.467-6.668 8.267-7.2 13.6-0.534 5.334 1.066 10.399 4.533 14.667 3.467 3.999 8.267 6.666 13.6 6.934 0.532 0 1.066 0 1.867 0 4.8 0 9.067-1.6 12.8-4.801 3.999-3.466 6.666-8.267 7.2-13.6 0.266-5.066-1.334-10.399-4.533-14.399zM70.663 463.734c1.333-10.133 9.867-17.6 19.733-17.6 0.533 0 1.333 0 1.867 0l68.534 6.666c10.933 1.066 18.932 10.933 17.866 21.867s-10.933 18.932-21.867 17.866l-49.066-4.8-3.733 30.133c-0.533 5.334-3.467 10.133-7.733 13.6-4.267 3.199-9.6 4.8-15.2 3.999l-64.533-9.599c-10.933-1.6-18.4-11.734-16.8-22.667s11.733-18.4 22.667-16.799l44.267 6.666 4-29.333zM114.924 593.335c1.867-5.067 5.867-9.067 10.933-11.2 5.067-2.134 10.667-2.134 15.733 0l28 12 20.533-44.8c3.467-7.466 10.667-11.734 18.134-11.734 2.667 0 5.6 0.532 8.267 1.867 10.133 4.533 14.4 16.533 9.867 26.4l-28.533 62.666c-4.533 9.867-16.001 14.4-26.134 10.133l-26.933-11.466-15.733 40.533c-4 10.401-15.733 15.467-25.867 11.467-10.4-4.001-15.467-15.733-11.467-25.868l23.2-59.999z" />
<glyph unicode="&#xe926;" glyph-name="39" horiz-adv-x="922" d="M559.999 754c11.001 0 20 8.999 20 20 0 10.999-8.999 19.999-20 19.999-10.999 0-19.999-8.999-19.999-19.999s8.999-20 19.999-20zM360 754c10.999 0 20 8.999 20 20 0 10.999-9.001 19.999-20 19.999-11.001 0-20-8.999-20-19.999s8.999-20 20-20zM0 281.999c0-37.199 15-72.799 41.8-98.999-13.8-83.001 52.4-167 138.2-167 0.6 0 1.2 0 1.799 0 28.4-49.001 81.2-80.001 138.201-80.001 59.399 0 112.4 35.6 140 87.001 27.6-51.4 80.601-87.001 140-87.001 57 0 109.801 30.999 138.201 80.001 0.6 0 1.2 0 1.799 0 75.801 0 140 66.8 140 145.999 0 6.801-0.6 13.6-1.799 21.001 26.8 26.4 41.8 61.8 41.8 98.999 0 28.801-8.999 56.601-25.799 80.201 17.199 25.799 25.799 57.999 25.799 85.799 0 42-18.6 81-50.6 107.4 7.001 17 10.6 34.599 10.6 52.6 0 55.801-32.6 107.6-80.799 131.801 7.401 60.799-32.399 116.6-91 130.799-23.001 53.2-74.201 89.4-128.2 89.4-50.199 0-95.2-29.2-120-72-24.8 42.8-69.8 72-120 72-54 0-105.2-36.2-128.2-89.4-59-14.4-98.4-70.4-91-130.799-48.2-24.2-80.8-76-80.8-131.801 0-18 3.6-35.6 10.6-52.6-32-26.4-50.6-65.4-50.6-107.4 0-28.001 8.6-60.199 25.8-85.799-16.8-23.6-25.8-51.4-25.8-80.201zM579.999 920c34.601 0 63.801-21.2 81.401-47.4-25-3.8-48.001-15.4-66.401-33.8-7.8-7.8-7.8-20.4 0-28.2s20.401-7.8 28.201 0c15.399 15 35.4 23.4 56.8 23.4 44 0 79.999-35.6 79.999-80 0-0.6 0-1.001 0-1.6-6.599 1.001-13.199 1.6-20 1.6-75.799 0-140-66.8-140-146 0-11.001 9.001-20 20-20 11.001 0 20 8.999 20 20 0 56.4 46.8 106 99.999 106 56.001 0 100.001-52 100.001-106 0-16.799-4.601-33.2-13.4-49-5.2-9.2-2.401-21.001 6.599-26.8 29.2-18.6 46.8-50 46.8-84.201 0-56.599-45.799-106-99.999-106-10.999 0-20-8.999-20-20 0-10.999 9.001-20 20-20 31.601 0 61.401 11.801 85.4 31.4 9.601-15.6 14.599-33.4 14.599-51.4 0-29.399-13.199-57.199-36.399-76.6-5.8-4.8-8.4-12.6-6.6-20 2.2-8.799 3.199-16.2 3.199-23.4 0-62-56.199-112.2-106.799-105.4-1.4 0.2-2.8 0.401-4.2 0.601-8.6 0.999-16.801-3.6-20.401-11.4-19.599-42.401-62.199-69.8-108.6-69.8-65.001 0-120 57.799-120 126 0 66.199 53.799 120 120 120 10.999 0 20 8.999 20 20 0 10.999-9.001 20-20 20-47.8 0-90.601-21.001-120-54.401v380.4c0 22 17.999 40 39.999 40 11.001 0 20 8.999 20 20 0 10.999-8.999 20-20 20-14.599 0-28.199-4.001-39.999-10.8v156.8c-0.2 56.4 46.599 106 99.799 106zM86.8 532.201c9 5.799 12 17.399 6.6 26.8-8.8 15.6-13.4 32.2-13.4 49 0 54 44 106 100 106 53.2 0 99.999-49.6 99.999-106 0-11.001 9.001-20 20-20 11.001 0 20 8.999 20 20 0 79.201-64.2 146-140 146-6.6 0-13.4-0.6-20-1.6 0 0.6 0 1.001 0 1.6 0 44.6 36.2 80 79.999 80 21.4 0 41.4-8.4 56.601-23.4 7.8-7.8 20.4-7.8 28.199 0s7.8 20.4 0 28.2c-18.199 18.2-41.4 29.8-66.399 33.8 17.8 26.2 47 47.4 81.6 47.4 53.2 0 99.999-49.6 99.999-106v-156.8c-11.799 6.799-25.4 10.8-39.999 10.8-11.001 0-20-9.001-20-20 0-11.001 8.999-20 20-20 22 0 39.999-18 39.999-40v-380.4c-29.399 33.2-72.199 54.401-120 54.401-11.001 0-20-9.001-20-20 0-11.001 8.999-20 20-20 66.2 0 120-53.801 120-120 0-68.201-54.999-126-120-126-46.4 0-89 27.399-108.6 69.8-3.6 7.8-11.801 12.399-20.401 11.4-1.4-0.2-2.8-0.401-4.2-0.601-56.999-7.8-120.999 56.601-103.6 128.8 1.8 7.401-0.8 15.201-6.6 20-23.4 19.4-36.6 47.201-36.6 76.6 0 18.201 5.2 35.801 14.6 51.4 24-19.599 53.8-31.4 85.4-31.4 11.001 0 20 9.001 20 20 0 11.001-8.999 20-20 20-54.2 0-100 49.6-100 106 0 34.2 17.4 65.799 46.8 84.201zM277.2 469.799c-7.8-24.2-30.4-41.8-57.199-41.8-11.001 0-20-8.999-20-20 0-10.999 8.999-20 20-20 48.799 0 89.4 35 98.2 81.2 27.799 3.6 54 15.6 75.2 34.401 8.199 7.399 8.999 20 1.6 28.199-7.401 8.201-20 8.999-28.201 1.6-64.2-57.4-166.799-11.4-166.799 74.6 0 11.001-9.001 20-20 20-11.001 0-20-8.999-20-20 0-69.399 50.801-127.2 117.2-138.201zM180 182c-11.001 0-20-8.999-20-20 0-10.999 8.999-20 20-20 53.2 0 99.999-49.6 99.999-106 0-10.999 9.001-19.999 20-19.999 11.001 0 20 8.999 20 19.999 0 79.201-64.2 146-140 146zM339.994 342c-67.801 0-126-37.2-156.6-91.2-5.399-9.599-2-21.799 7.601-27.199 9.599-5.401 21.799-2.001 27.199 7.6 23.801 42 69.2 70.799 121.8 70.799 11.001 0 20 9.001 20 20 0 11.001-8.999 20-20 20zM524.999 531.8c-7.401-8.199-6.6-20.8 1.6-28.199 21.2-19 47.399-30.8 75.2-34.401 8.801-46.2 49.399-81.2 98.2-81.2 10.999 0 20 9.001 20 20 0 11.001-9.001 20-20 20-26.8 0-49.6 17.6-57.201 41.8 66.401 11.001 117.2 68.601 117.2 138.201 0 11.001-8.999 20-19.999 20s-20-8.999-20-20c0-55.199-44.8-99.999-100.001-99.999-24.599 0-48.4 8.999-66.599 25.4-8.199 7.399-20.999 6.799-28.4-1.6zM739.999 182c-75.799 0-140-66.8-140-146 0-10.999 9.001-19.999 20-19.999 11.001 0 20 8.999 20 19.999 0 56.4 46.8 106 99.999 106 11.001 0 20 9.001 20 20 0 11.001-8.999 20-20 20zM701.8 231c5.399-9.599 17.6-13 27.2-7.6s13 17.6 7.6 27.2c-30.6 54.199-88.599 91.399-156.6 91.399-10.999 0-20-8.999-20-20 0-10.999 9.001-20 20-20 52.6 0 98.001-28.799 121.8-71z" />
<glyph unicode="&#xe927;" glyph-name="40" horiz-adv-x="1195" d="M85.333 512c-35.346 0-64-28.654-64-64s28.654-64 64-64v128zM1154.586 402.745c24.994 24.993 24.994 65.516 0 90.51l-407.291 407.293c-24.993 24.994-65.516 24.994-90.51 0s-24.993-65.516 0-90.51l362.035-362.039-362.035-362.035c-24.993-24.994-24.993-65.519 0-90.513s65.516-24.994 90.51 0l407.291 407.293zM85.333 384h1024v128h-1024v-128z" />
<glyph unicode="&#xe928;" glyph-name="41" d="M749.947 185.297c-50.584 0-86.527 40.466-86.527 90.062 38.657 27.882 74.518 63.168 100.016 103.633h85.456c35.202 0 63.908 28.706 63.908 63.826v138.095c0 35.204-28.706 63.908-63.908 63.908h-49.431v44.086c0 148.541-120.083 271.092-268.379 271.092h-44.414c-148.214 0-268.297-122.551-268.297-271.174v-44.086h-49.431c-35.203 0-63.908-28.706-63.908-63.908v-138.013c0-35.202 28.705-63.826 63.908-63.826h73.367c26.565-45.812 67.691-84.634 111.775-113.585-3.29-44.661-40.878-80.11-86.279-80.11-147.801 0-267.802-38.987-267.802-218.371 0-17.108 13.818-30.926 30.926-30.926 17.025 0 30.926 13.818 30.926 30.926 0 143.935 95.409 156.602 206.035 156.602 19.411 0 37.998 3.783 54.942 10.61l157.26-113.832c11.268-8.144 26.154-7.649 36.765 0.328l164.991 119.508c20.398-10.61 43.593-16.614 68.103-16.614 110.624 0 206.033-12.667 206.033-156.602 0-17.108 13.818-30.926 30.926-30.926 17.107 0 30.925 13.818 30.925 30.926 0 179.384-120.001 218.371-267.884 218.371zM799.46 582.971h49.431c1.069 0 2.057-0.987 2.057-2.057v-138.013c0-1.069-0.987-2.057-2.057-2.057h-49.431v142.127zM218.371 440.762h-49.431c-1.069 0-2.057 0.987-2.057 2.057v138.095c0 1.069 0.987 2.057 2.057 2.057h49.431v-142.209zM737.116 703.301c-67.034-10.61-135.136 6.498-189.008 46.965 30.925 36.928 53.543 81.426 64.483 130.94 69.582-30.432 119.097-98.369 124.526-177.905zM486.668 898.149h44.414c7.402 0 14.64-0.411 21.878-1.152-26.484-124.607-144.511-209.981-272.327-195.095 6.663 108.734 95.903 196.247 206.035 196.247zM498.182 83.308l-121.482 87.924c16.203 17.519 28.211 38.905 34.545 62.591 35.942-16.366 69.746-25.25 93.845-25.25 24.428 0 61.029 11.105 100.016 31.090 4.852-21.795 14.475-41.782 27.8-58.807l-134.725-97.548zM505.091 270.342c-31.83 0-90.062 23.77-141.303 63.99-37.588 29.528-70.159 67.362-83.648 110.297v195.341c83.071-7.897 162.36 18.012 223.389 66.787 65.717-52.723 150.104-76.409 233.999-65.635v-200.359c-36.93 0-105.279 0-146.321 0-9.377 12.502-24.346 20.645-41.207 20.645-28.458 0-51.488-23.030-51.488-51.488s23.030-51.488 51.488-51.488c16.861 0 31.83 8.060 41.207 20.645h95.573c-9.048-10.364-18.836-20.152-29.033-29.282-54.86-49.266-120.33-79.452-152.655-79.452z" />
<glyph unicode="&#xe929;" glyph-name="42" d="M881.869 654.934c-14.934-33.601-15.735-76.533-16.535-121.867-0.798-48.532-1.598-97.865-17.333-142.398-17.599 5.866-43.733 6.931-82.666-2.668-48.799-12-101.866-37.066-142.134-66.935-53.332-39.464-81.333-84.798-81.333-131.199v-253.866h242.133v30.133c0 69.866 29.068 91.734 73.335 124.799 94.399 70.667 166.667 152.002 166.667 417.334v209.867h-30.135c-55.733 0-93.332-21.333-111.999-63.201zM964.002 508.001c0-262.667-75.733-319.2-142.667-369.333-42.666-32-86.665-65.067-95.733-142.667h-123.732v193.601c0 29.599 26.134 63.733 71.998 93.332 56.002 36.535 115.467 51.467 142.401 52.267-3.999-5.866-10.933-14.134-22.665-25.066-20.267-17.599-46.667-33.334-80.535-46.401l21.601-55.999c33.067 12.8 74.666 34.134 99.999 58.4 28.801 25.333 50.133 55.999 64.8 91.734 23.733 58.4 24.8 119.733 25.867 174.131 1.334 80.268 6.133 112.802 38.667 122.4v-146.4zM166.667 90.67c44.266-33.067 73.333-54.935 73.333-124.535v-30.133h242.134v253.599c0 46.401-28.001 91.734-81.335 131.201-39.998 29.866-93.065 54.665-142.132 66.932-39.2 9.601-65.333 8.801-82.667 2.668-15.467 44.533-16.533 93.866-17.333 142.398-1.333 81.335-0.8 185.068-128.533 185.068h-30.133v-210.134c0-257.598 67.733-342.932 166.667-417.064zM60 654.667c32.533-9.865 37.333-42.132 38.667-122.4 0.8-54.132 1.867-115.731 25.867-174.131 14.667-36.002 36-66.401 64.8-91.734 25.333-24.266 66.933-45.867 100.001-58.4l21.598 55.999c-33.865 13.067-60.266 28.801-80.532 46.401-11.467 11.199-18.4 19.2-22.4 25.066 26.933-0.8 86.4-15.732 142.399-52.267 45.6-29.866 72.001-63.733 72.001-93.332v-193.601h-123.734c-9.332 77.6-53.332 110.401-95.999 142.401-66.933 50.133-142.667 106.666-142.667 369.333v146.666zM417.334 439.735c69.866-59.201 77.867-66.935 94.666-81.333 21.067 18.4 22.932 20.531 94.666 81.333 132.535 112.265 237.334 201.065 237.334 306.399 0 111.733-80.532 213.867-183.733 213.867h-0.267c-52 0-103.467-28.267-148-80-45.067 52.267-97.334 80.267-150.135 80-104.266-0.8-181.865-103.467-181.865-213.867 0-105.334 104.799-194.134 237.334-306.399zM362.399 900.001c0.267 0 0.534 0 0.8 0 41.868 0 86.135-30.4 124.268-86.133l24.8-35.734 24.8 35.734c37.866 55.467 81.599 86.133 122.934 86.133h0.267c69.333 0 123.734-75.2 123.734-153.867 0-77.6-95.469-158.399-216.002-260.532-18.133-15.468-36.799-31.2-55.999-47.735-18.933 16.535-37.866 32.267-55.999 47.735-120.8 102.133-216.001 182.932-216.001 260.532 0 82.933 56.001 153.333 122.399 153.867zM482.132 538.134h60.001v60.001h59.998v60.001h-59.998v59.999h-60.001v-59.999h-60.001v-60.001h60.001v-60.001z" />
<glyph unicode="&#xe92a;" glyph-name="43" horiz-adv-x="696" d="M687.464 246.137c0.537 8.266 0.268 17.601 0 28.533v0.266c-1.341 61.067-8.317 110.133-37.835 150.401-27.101 37.067-71.107 65.333-151.876 97.067-15.831 6.4-30.857 12.265-34.345 15.999-1.612 1.602-2.417 10.668-3.222 20.001-0.268 2.666-0.537 5.333-0.805 8.266 38.371 31.734 63.058 79.735 63.058 133.335v117.599c0 70.933-61.448 119.2-122.626 135.733-60.107 16-114.846 2.933-142.217-33.333-53.934-8.8-84.524-53.6-83.987-124v-95.733c0-53.334 24.418-101.067 62.79-133.067-0.268-2.935-0.537-5.868-0.805-8.534-0.805-9.599-1.612-18.399-3.222-20.267-3.488-3.734-18.514-9.599-34.346-15.999-24.418-9.601-44.811-18.668-62.521-27.734-9.928-5.067-13.685-17.066-8.855-26.933 3.488-6.932 10.733-10.932 17.978-10.932 2.952 0 6.172 0.799 9.123 2.132 10.733 5.333 22.54 10.934 35.688 16.534 42.396-40.8 99.283-64 158.314-64 59.302 0 116.457 23.2 158.585 64.266 119.943-50.932 138.727-92.266 141.142-201.599v-0.266c0-0.535 0-0.801 0-1.333-2.951 0.532-5.902 0.799-8.856 0.799h-55.544c-7.246 23.468-19.587 44.534-36.762 62.134-24.955 25.6-59.032 38.932-96.061 37.333-35.152-1.333-68.962-15.733-95.259-40.268 0 0-5.097-4.798-6.707-6.132-1.612 1.333-6.709 6.132-6.709 6.132-26.296 24.535-60.375 38.935-95.259 40.268-37.028 1.599-71.375-11.733-96.33-37.333-16.905-17.601-29.517-38.666-36.493-62.134h-55.813c-3.22 0-6.172-0.266-9.123-0.799 0 0.532 0 1.065 0 1.599 0.537 26.399 2.147 46.666 5.098 64 1.878 10.932-5.635 21.332-16.637 22.934-11.001 1.866-21.198-5.601-23.076-16.534-3.22-19.2-5.098-41.333-5.635-69.601-0.268-10.932-0.537-20.799 0-29.6-5.367-8.532-8.318-18.665-8.318-29.6v-66.132c0-31.468 25.76-57.334 57.691-57.334h58.228c17.173 0 33.273 4.798 47.226 13.066l170.926-164c4.026-3.734 8.856-5.601 13.955-5.601 5.097 0 10.195 1.868 13.953 5.601l171.194 164c13.685-8.268 29.784-13.066 47.227-13.066h58.227c31.664 0 57.692 25.6 57.692 57.334v66.398c0 10.934-3.219 21.334-8.856 30.134zM270.746 881.337c6.441 0.533 12.343 4.267 15.833 9.867 17.709 30.4 64.668 33.6 103.039 23.2 46.152-12.267 92.842-47.2 92.842-97.067v-58.4c-53.666-1.867-121.285 4.533-171.194 38.4-8.856 6.133-20.931 4-27.372-4.267-17.441-22.667-39.176-28.267-69.765-31.733v34.933c-0.537 53.333 18.514 82.133 56.617 85.067zM213.86 700.004v21.332c32.735 3.734 63.863 9.601 89.623 34.134 55.812-31.467 123.97-37.867 178.977-36v-19.2c0-73.601-60.107-133.333-134.164-133.333-74.328-0.268-134.435 59.466-134.435 133.067zM347.757 451.738c-42.664 0-83.986 14.666-116.992 40.798 14.221 5.868 23.882 10.934 30.859 18.401 8.585 9.066 11.27 19.2 12.88 32 22.27-10.4 47.225-16.267 73.791-16.267 26.296 0 50.983 5.868 73.521 16.001 1.61-12.8 4.295-22.934 12.88-31.734 6.978-7.467 16.638-12.534 30.591-18.401-33.542-26.132-74.865-40.798-117.531-40.798zM115.919 132.536h-58.228c-9.66 0-17.442 7.733-17.442 17.334v66.132c0 9.335 8.050 17.334 17.442 17.334h58.228c27.906 0 50.715-22.667 50.715-50.399 0-27.734-22.808-50.401-50.715-50.401zM504.195 133.337l-156.168-149.6-155.902 149.6c9.392 14.133 14.757 31.199 14.757 49.332 0 36.801-22.271 68.268-53.934 82.401 5.367 15.733 14.222 30.132 25.76 42.134 34.079 35.199 94.722 33.333 135.239-4.268 0 0 17.709-20.533 34.347-19.999 16.099 0.532 34.077 19.999 34.077 19.999 40.249 37.601 100.893 39.467 134.971 4.268 11.538-12.001 20.392-26.401 25.76-42.134-31.664-14.133-53.934-45.867-53.934-82.401 0.268-18.133 5.634-34.933 15.026-49.332zM656.071 149.871c0-9.601-7.782-17.334-17.443-17.334h-58.227c-13.148 0-24.955 5.067-34.079 13.066 0 0 0 0.268-0.268 0.268-0.537 0.532-1.073 1.065-1.61 1.599-9.124 9.066-14.758 21.6-14.758 35.467 0 27.732 22.809 50.399 50.715 50.399h58.227c9.66 0 17.443-7.733 17.443-17.334v-66.132zM70.298 403.466c5.098 0 10.465 1.868 14.222 5.868 7.782 7.733 7.782 20.533 0 28.266s-20.661 7.733-28.443 0c-7.782-7.733-7.782-20.533 0-28.266 3.757-4 8.855-5.868 14.222-5.868z" />
<glyph unicode="&#xe92b;" glyph-name="44" horiz-adv-x="775" d="M746.593 744.784l-209.14 209.14c-3.922 3.92-9.213 6.076-14.701 6.076h-439.057c-46.258 0-83.695-37.437-83.695-83.695v-836.363c0-46.063 37.437-83.5 83.695-83.5h585.475c46.061 0 83.694 37.437 83.694 83.697v689.945c-0.196 5.488-2.352 10.781-6.271 14.7zM543.528 888.653l137.794-137.793h-95.849c-23.129 0-41.749 18.817-41.749 41.75v96.044h-0.196zM668.974-1.81h-585.279c-23.129 0-41.75 18.817-41.75 41.752v836.363c0 23.129 18.817 41.75 41.75 41.75h418.084v-125.445c0-46.062 37.437-83.695 83.694-83.695h125.446v-668.973c0-22.935-18.817-41.752-41.945-41.752zM543.545 353.745c-8.43 0-30.972-2.546-60.568-7.448-19.403 15.288-37.83 30.969-49.982 43.121-15.875 15.878-30.183 31.362-42.532 46.061 19.207 59.392 27.637 90.165 27.637 106.432 0 69.388-25.091 83.697-62.724 83.697-28.617 0-62.721-14.898-62.721-85.656 0-31.166 17.054-68.995 50.962-113.097-8.234-25.284-18.033-54.491-29.010-87.419-5.292-15.875-10.976-30.38-17.051-43.905-4.901-2.156-9.606-4.508-14.308-6.664-16.662-8.234-32.342-15.878-47.043-22.738-66.642-31.752-110.744-52.528-110.744-93.887 0-29.989 32.537-48.61 62.722-48.61 38.81 0 97.611 51.942 140.539 139.361 44.491 17.64 99.765 30.579 143.476 38.81 35.084-26.854 73.698-52.725 92.321-52.725 51.745 0 62.721 29.989 62.721 55.077 0 49.589-56.45 49.589-83.694 49.589zM188.182 165.578c-11.956 0-19.993 5.685-20.973 6.664 0 14.898 44.298 35.87 87.028 56.060 2.744 1.37 5.488 2.546 8.232 3.919-31.361-45.67-62.33-66.643-74.287-66.643zM334.599 539.756c0 43.907 13.525 43.907 20.973 43.907 14.701 0 20.973 0 20.973-41.752 0-8.82-5.878-30.969-16.661-65.27-16.661 25.091-25.284 46.847-25.284 63.114zM350.476 315.132c1.373 3.725 2.549 7.254 3.722 10.976 7.841 23.325 14.701 44.101 20.975 62.918 8.624-9.603 18.031-19.403 28.027-29.4 3.922-3.919 13.722-12.742 26.657-23.718-25.677-5.488-53.118-12.543-79.382-20.776zM566.084 290.827c-5.685 1.176-18.817 9.017-35.084 19.993 5.881 0.587 10.193 0.98 12.739 0.98 30.969 0 39.596-2.939 41.752-7.644 0-9.213 0-13.132-19.406-13.329z" />
<glyph unicode="&#xe92c;" glyph-name="45" horiz-adv-x="922" d="M614.4 857.6v51.2c0 28.16 23.040 51.2 51.2 51.2s51.2-23.040 51.2-51.2v-51.2c112.957 0 204.8-91.84 204.8-204.8v-512c0-112.957-91.843-204.8-204.8-204.8-146.56 0-365.76 0-512 0-112.96 0-204.8 91.843-204.8 204.8v512c0 112.96 91.84 204.8 204.8 204.8v51.2c0 28.16 23.040 51.2 51.2 51.2s51.2-23.040 51.2-51.2v-51.2h307.2zM819.2 448h-716.8v-307.2c0-56.643 45.76-102.4 102.4-102.4h512c56.637 0 102.4 45.757 102.4 102.4v307.2zM716.8 755.2v-51.2c0-28.16-23.040-51.2-51.2-51.2s-51.2 23.040-51.2 51.2v51.2h-307.2v-51.2c0-28.16-23.040-51.2-51.2-51.2s-51.2 23.040-51.2 51.2v51.2c-56.64 0-102.4-45.76-102.4-102.4v-102.4h716.8v102.4c0 56.64-45.763 102.4-102.4 102.4z" />
<glyph unicode="&#xe92d;" glyph-name="46" horiz-adv-x="819" d="M752.686 960h-700.173c-28.882 0-52.513-23.631-52.513-52.513v-918.977c0-20.127 11.378-38.508 29.757-47.258 18.379-8.755 39.822-6.129 55.576 6.124l317.265 253.814 317.263-253.814c9.631-7.439 21.007-11.377 32.824-11.377 7.875 0 15.314 1.751 22.753 5.253 18.381 8.75 29.757 27.131 29.757 47.258v918.977c0 28.882-23.629 52.513-52.511 52.513zM700.17 97.915l-264.752 211.799c-9.627 7.88-21.005 11.382-32.82 11.382s-23.193-3.942-32.821-11.382l-264.752-211.799v757.060h595.145v-757.060z" />
<glyph unicode="&#xe92e;" glyph-name="47" horiz-adv-x="725" d="M409.694 601.704c0 28.318-22.798 51.116-51.116 51.116s-51.116-22.798-51.116-51.116c0-28.318 22.798-51.116 51.116-51.116s51.116 22.798 51.116 51.116zM511.927 601.704c0-84.955-68.638-153.588-153.589-153.588-84.954 0-153.588 68.634-153.588 153.588s68.634 153.588 153.588 153.588c84.951 0 153.589-68.875 153.589-153.588zM716.834 601.708c0-68.396-19.439-134.15-55.194-190.786-8.162-12.719-14.878-23.518-28.8-45.594l-2.398-3.84c-95.514-150.229-137.51-220.066-181.905-308.617l-44.158-88.316c-18.959-37.675-72.714-37.675-91.673 0l-20.879 41.758c-91.193 182.148-148.068 283.418-222.223 383.731-54.956 74.394-79.194 167.266-65.995 262.539 22.078 159.108 153.108 286.778 312.935 305.016 214.543 24.478 400.288-142.309 400.288-355.892zM543.808 416.444l2.402 3.84c13.918 22.076 20.877 32.636 28.796 45.355 25.677 40.559 39.356 87.114 39.356 136.070 0 152.628-132.467 271.659-286.296 254.38-113.271-13.199-207.344-104.872-223.183-217.663-9.599-68.395 7.68-134.63 47.036-187.904 71.275-96.474 126.47-191.987 206.144-348.932 46.077 91.191 89.271 163.187 185.745 314.854z" />
<glyph unicode="&#xe92f;" glyph-name="48" d="M546.133 960h-68.267v-477.867h-477.867v-68.267h477.867v-477.867h68.267v477.867h477.867v68.267h-477.867v477.867z" />
<glyph unicode="&#xe930;" glyph-name="49" horiz-adv-x="1755" d="M1697.777 710.274c57.125 57.129 57.125 149.752 0 206.88s-149.753 57.128-206.877 0l-620.591-620.592-620.583 620.584c-57.129 57.128-149.752 57.128-206.88 0s-57.128-149.75 0-206.879l720.912-720.911c1.004-1.065 2.025-2.118 3.066-3.158 25.787-25.787 58.807-39.935 92.53-42.442 41.016-3.076 83.083 11.068 114.448 42.433 1.126 1.126 2.229 2.265 3.31 3.417l720.665 720.668z" />
<glyph unicode="&#xe931;" glyph-name="50" horiz-adv-x="614" d="M96.543 960l-96.543-96.543 386.177-386.177-386.177-386.178 96.543-96.543 482.718 482.722-482.718 482.718z" />
<glyph unicode="&#xe932;" glyph-name="51" horiz-adv-x="614" d="M517.857 960l96.543-96.543-386.177-386.177 386.177-386.178-96.543-96.543-482.719 482.722 482.719 482.718z" />
<glyph unicode="&#xe933;" glyph-name="52" d="M438.519 960c-241.795 0-438.519-196.725-438.519-438.519 0-241.792 196.725-438.821 438.519-438.821 103.235 0 198.249 36.238 273.161 96.228l182.716-182.414c19.189-18.267 49.641-17.966 68.215 0.614 18.881 18.876 19.183 49.027 0.916 68.21l-182.721 182.716c59.995 75.218 96.233 170.233 96.233 273.468 0 241.795-197.029 438.519-438.519 438.519zM438.519 862.551c188.806 0 341.069-151.959 341.069-341.071 0-188.806-151.956-341.376-341.069-341.376-188.807 0-341.071 152.57-341.071 341.376 0 189.112 151.959 341.071 341.071 341.071z" />
</font>
</defs>
</svg>
